<svg xmlns="http://www.w3.org/2000/svg" xmlns:xlink="http://www.w3.org/1999/xlink" width="300" zoomAndPan="magnify" viewBox="0 0 224.87999 112.499997" height="150" preserveAspectRatio="xMidYMid meet" version="1.0"><defs><g/><clipPath id="1a988635f6"><path d="M 27 41 L 62 41 L 62 96 L 27 96 Z M 27 41 " clip-rule="nonzero"/></clipPath><clipPath id="84984dd33c"><path d="M 48.707031 100.902344 L 15.941406 68.136719 L 52.121094 31.957031 L 84.886719 64.722656 Z M 48.707031 100.902344 " clip-rule="nonzero"/></clipPath><clipPath id="0b82c671f1"><path d="M 48.707031 100.902344 L 15.941406 68.136719 L 52.121094 31.957031 L 84.886719 64.722656 Z M 48.707031 100.902344 " clip-rule="nonzero"/></clipPath><clipPath id="8b04a5bcbf"><path d="M 41.8125 55.808594 C 41.207031 56.417969 40.644531 57.066406 40.132812 57.757812 C 39.621094 58.449219 39.164062 59.171875 38.757812 59.933594 C 38.351562 60.691406 38.007812 61.476562 37.71875 62.289062 C 37.429688 63.097656 37.199219 63.925781 37.035156 64.773438 C 36.867188 65.617188 36.765625 66.46875 36.722656 67.332031 C 36.683594 68.191406 36.707031 69.050781 36.792969 69.910156 C 36.878906 70.769531 37.027344 71.613281 37.238281 72.453125 C 37.449219 73.289062 37.722656 74.105469 38.054688 74.902344 C 38.382812 75.699219 38.773438 76.46875 39.21875 77.207031 C 39.664062 77.949219 40.160156 78.652344 40.707031 79.320312 C 41.253906 79.988281 41.847656 80.609375 42.488281 81.191406 C 43.128906 81.769531 43.808594 82.300781 44.527344 82.78125 C 45.242188 83.261719 45.992188 83.6875 46.773438 84.058594 C 47.550781 84.425781 48.355469 84.738281 49.179688 84.992188 C 50.007812 85.242188 50.84375 85.433594 51.699219 85.558594 C 52.550781 85.6875 53.410156 85.753906 54.269531 85.753906 L 54.265625 84.484375 C 53.734375 84.484375 53.203125 84.457031 52.671875 84.402344 C 52.144531 84.351562 51.617188 84.269531 51.09375 84.164062 C 50.570312 84.058594 50.054688 83.929688 49.546875 83.773438 C 49.035156 83.617188 48.535156 83.4375 48.042969 83.234375 C 47.550781 83.027344 47.070312 82.800781 46.597656 82.546875 C 46.128906 82.296875 45.671875 82.019531 45.226562 81.722656 C 44.785156 81.425781 44.355469 81.109375 43.945312 80.769531 C 43.53125 80.433594 43.136719 80.074219 42.761719 79.695312 C 42.382812 79.320312 42.023438 78.925781 41.6875 78.511719 C 41.347656 78.097656 41.03125 77.671875 40.734375 77.226562 C 40.4375 76.785156 40.164062 76.328125 39.910156 75.859375 C 39.660156 75.386719 39.429688 74.90625 39.226562 74.414062 C 39.019531 73.921875 38.839844 73.417969 38.683594 72.910156 C 38.53125 72.398438 38.398438 71.882812 38.292969 71.359375 C 38.191406 70.839844 38.109375 70.3125 38.058594 69.78125 C 38.003906 69.253906 37.976562 68.722656 37.976562 68.1875 C 37.976562 67.65625 38 67.125 38.050781 66.59375 C 38.101562 66.066406 38.179688 65.539062 38.28125 65.015625 C 38.386719 64.496094 38.511719 63.980469 38.667969 63.46875 C 38.820312 62.960938 39 62.460938 39.203125 61.96875 C 39.40625 61.476562 39.632812 60.996094 39.882812 60.527344 C 40.132812 60.058594 40.402344 59.601562 40.699219 59.160156 C 40.996094 58.71875 41.308594 58.292969 41.648438 57.882812 C 41.984375 57.472656 42.339844 57.078125 42.714844 56.703125 C 43.09375 56.328125 43.484375 55.96875 43.898438 55.632812 C 44.308594 55.296875 44.734375 54.980469 45.175781 54.683594 C 45.617188 54.390625 46.074219 54.117188 46.542969 53.867188 C 47.011719 53.617188 47.492188 53.390625 47.984375 53.1875 C 48.476562 52.988281 48.976562 52.808594 49.484375 52.65625 C 49.996094 52.5 50.511719 52.375 51.035156 52.269531 C 51.554688 52.167969 52.082031 52.089844 52.609375 52.039062 C 53.140625 51.988281 53.671875 51.964844 54.203125 51.964844 L 61.378906 51.980469 L 61.375 50.710938 L 54.199219 50.703125 C 51.875 50.691406 49.636719 51.128906 47.492188 52.011719 C 45.34375 52.898438 43.449219 54.164062 41.8125 55.808594 Z M 46.320312 60.316406 C 45.542969 61.09375 44.894531 61.96875 44.375 62.941406 C 43.855469 63.917969 43.488281 64.945312 43.277344 66.027344 C 43.0625 67.109375 43.011719 68.199219 43.121094 69.300781 C 43.234375 70.398438 43.5 71.457031 43.925781 72.480469 C 44.351562 73.5 44.914062 74.4375 45.617188 75.292969 C 46.320312 76.148438 47.128906 76.882812 48.046875 77.5 C 48.96875 78.117188 49.957031 78.585938 51.015625 78.90625 C 52.070312 79.230469 53.152344 79.394531 54.257812 79.394531 L 54.253906 78.125 C 53.605469 78.121094 52.960938 78.058594 52.320312 77.929688 C 51.683594 77.800781 51.066406 77.613281 50.464844 77.363281 C 49.863281 77.113281 49.292969 76.808594 48.75 76.445312 C 48.210938 76.082031 47.707031 75.671875 47.246094 75.210938 C 46.785156 74.75 46.375 74.25 46.011719 73.710938 C 45.652344 73.167969 45.34375 72.597656 45.09375 71.996094 C 44.84375 71.394531 44.65625 70.777344 44.527344 70.136719 C 44.398438 69.5 44.335938 68.855469 44.332031 68.207031 C 44.332031 67.554688 44.394531 66.914062 44.519531 66.277344 C 44.644531 65.636719 44.832031 65.019531 45.078125 64.421875 C 45.328125 63.820312 45.632812 63.25 45.992188 62.710938 C 46.351562 62.171875 46.761719 61.671875 47.21875 61.214844 C 47.679688 60.753906 48.175781 60.347656 48.71875 59.984375 C 49.257812 59.625 49.828125 59.324219 50.425781 59.074219 C 51.027344 58.828125 51.644531 58.640625 52.28125 58.515625 C 52.917969 58.390625 53.5625 58.328125 54.214844 58.332031 L 61.398438 58.347656 L 61.394531 57.078125 L 54.210938 57.0625 C 52.726562 57.054688 51.304688 57.332031 49.9375 57.898438 C 48.570312 58.460938 47.363281 59.265625 46.320312 60.316406 Z M 44.0625 58.058594 C 43.566406 58.554688 43.109375 59.085938 42.6875 59.652344 C 42.269531 60.21875 41.894531 60.8125 41.566406 61.433594 C 41.234375 62.054688 40.949219 62.695312 40.714844 63.359375 C 40.476562 64.023438 40.292969 64.703125 40.15625 65.394531 C 40.019531 66.085938 39.933594 66.78125 39.902344 67.488281 C 39.871094 68.191406 39.886719 68.894531 39.957031 69.59375 C 40.027344 70.296875 40.152344 70.992188 40.324219 71.675781 C 40.496094 72.359375 40.71875 73.027344 40.988281 73.679688 C 41.261719 74.332031 41.578125 74.960938 41.941406 75.566406 C 42.304688 76.171875 42.710938 76.75 43.160156 77.292969 C 43.609375 77.839844 44.09375 78.351562 44.617188 78.828125 C 45.140625 79.300781 45.695312 79.734375 46.28125 80.128906 C 46.871094 80.523438 47.480469 80.871094 48.121094 81.171875 C 48.757812 81.476562 49.414062 81.730469 50.089844 81.9375 C 50.765625 82.144531 51.453125 82.300781 52.148438 82.40625 C 52.847656 82.511719 53.546875 82.5625 54.253906 82.566406 L 54.261719 81.304688 C 53.414062 81.28125 52.578125 81.179688 51.753906 80.992188 C 50.929688 80.808594 50.128906 80.546875 49.351562 80.207031 C 48.578125 79.867188 47.839844 79.457031 47.144531 78.976562 C 46.449219 78.492188 45.804688 77.949219 45.210938 77.34375 C 44.621094 76.738281 44.09375 76.078125 43.628906 75.371094 C 43.164062 74.664062 42.769531 73.917969 42.449219 73.132812 C 42.128906 72.351562 41.886719 71.542969 41.722656 70.714844 C 41.558594 69.882812 41.476562 69.046875 41.476562 68.199219 C 41.472656 67.355469 41.554688 66.519531 41.714844 65.6875 C 41.875 64.859375 42.113281 64.054688 42.429688 63.269531 C 42.746094 62.488281 43.136719 61.746094 43.597656 61.039062 C 44.058594 60.332031 44.585938 59.675781 45.175781 59.074219 C 45.765625 58.46875 46.40625 57.929688 47.101562 57.449219 C 47.792969 56.972656 48.527344 56.5625 49.304688 56.226562 C 50.078125 55.890625 50.875 55.632812 51.703125 55.449219 C 52.527344 55.269531 53.363281 55.167969 54.207031 55.152344 L 61.386719 55.164062 L 61.382812 53.894531 L 54.203125 53.878906 C 52.300781 53.871094 50.46875 54.230469 48.710938 54.953125 C 46.957031 55.679688 45.40625 56.714844 44.066406 58.0625 Z M 37.300781 51.296875 C 36.75 51.847656 36.226562 52.425781 35.730469 53.03125 C 35.238281 53.632812 34.773438 54.261719 34.339844 54.910156 C 33.90625 55.558594 33.507812 56.230469 33.140625 56.917969 C 32.773438 57.609375 32.441406 58.316406 32.140625 59.035156 C 31.84375 59.757812 31.582031 60.496094 31.359375 61.242188 C 31.132812 61.992188 30.945312 62.75 30.792969 63.515625 C 30.640625 64.28125 30.53125 65.054688 30.453125 65.835938 C 30.378906 66.613281 30.34375 67.394531 30.34375 68.175781 C 30.347656 68.957031 30.386719 69.738281 30.464844 70.515625 C 30.542969 71.296875 30.660156 72.070312 30.816406 72.835938 C 30.96875 73.605469 31.160156 74.363281 31.390625 75.113281 C 31.621094 75.859375 31.882812 76.597656 32.183594 77.320312 C 32.488281 78.042969 32.820312 78.75 33.191406 79.441406 C 33.5625 80.132812 33.964844 80.804688 34.402344 81.453125 C 34.839844 82.105469 35.304688 82.734375 35.804688 83.339844 C 36.300781 83.945312 36.828125 84.527344 37.382812 85.082031 C 38.488281 86.195312 39.695312 87.191406 41 88.066406 C 42.308594 88.945312 43.683594 89.683594 45.136719 90.289062 C 46.585938 90.890625 48.082031 91.347656 49.621094 91.65625 C 51.160156 91.964844 52.714844 92.117188 54.285156 92.117188 L 54.277344 90.851562 C 53.535156 90.847656 52.796875 90.8125 52.058594 90.738281 C 51.320312 90.664062 50.589844 90.554688 49.863281 90.40625 C 49.136719 90.261719 48.417969 90.078125 47.707031 89.863281 C 47 89.644531 46.300781 89.394531 45.617188 89.109375 C 44.929688 88.824219 44.261719 88.507812 43.609375 88.15625 C 42.953125 87.808594 42.320312 87.425781 41.703125 87.011719 C 41.085938 86.601562 40.488281 86.15625 39.917969 85.6875 C 39.34375 85.214844 38.792969 84.71875 38.269531 84.191406 C 37.742188 83.667969 37.246094 83.117188 36.773438 82.542969 C 36.304688 81.972656 35.863281 81.375 35.449219 80.757812 C 35.035156 80.140625 34.652344 79.507812 34.304688 78.851562 C 33.953125 78.199219 33.636719 77.53125 33.351562 76.84375 C 33.066406 76.160156 32.816406 75.460938 32.597656 74.753906 C 32.382812 74.042969 32.199219 73.324219 32.054688 72.597656 C 31.910156 71.871094 31.796875 71.140625 31.722656 70.402344 C 31.648438 69.664062 31.613281 68.925781 31.609375 68.1875 C 31.609375 67.445312 31.644531 66.707031 31.714844 65.96875 C 31.785156 65.230469 31.894531 64.5 32.035156 63.773438 C 32.179688 63.046875 32.355469 62.332031 32.570312 61.621094 C 32.785156 60.914062 33.03125 60.21875 33.316406 59.535156 C 33.597656 58.851562 33.910156 58.183594 34.257812 57.527344 C 34.605469 56.875 34.984375 56.242188 35.398438 55.628906 C 35.808594 55.011719 36.246094 54.417969 36.714844 53.847656 C 37.183594 53.277344 37.679688 52.730469 38.203125 52.207031 C 38.726562 51.683594 39.273438 51.1875 39.84375 50.71875 C 40.414062 50.25 41.007812 49.808594 41.625 49.398438 C 42.238281 48.988281 42.871094 48.609375 43.527344 48.261719 C 44.179688 47.914062 44.847656 47.601562 45.53125 47.316406 C 46.214844 47.035156 46.910156 46.789062 47.617188 46.574219 C 48.328125 46.359375 49.042969 46.183594 49.769531 46.039062 C 50.496094 45.898438 51.226562 45.789062 51.964844 45.71875 C 52.703125 45.648438 53.441406 45.613281 54.183594 45.613281 L 61.355469 45.625 L 61.351562 44.355469 L 54.183594 44.339844 C 52.613281 44.332031 51.058594 44.476562 49.519531 44.78125 C 47.980469 45.082031 46.488281 45.527344 45.039062 46.125 C 43.59375 46.722656 42.21875 47.457031 40.914062 48.328125 C 39.613281 49.199219 38.410156 50.191406 37.304688 51.300781 Z M 48.570312 62.5625 C 48.011719 63.121094 47.546875 63.746094 47.175781 64.441406 C 46.808594 65.140625 46.546875 65.875 46.394531 66.648438 C 46.242188 67.421875 46.203125 68.203125 46.28125 68.988281 C 46.363281 69.773438 46.554688 70.535156 46.855469 71.261719 C 47.160156 71.992188 47.5625 72.664062 48.066406 73.277344 C 48.566406 73.886719 49.148438 74.414062 49.804688 74.855469 C 50.464844 75.292969 51.167969 75.628906 51.925781 75.859375 C 52.683594 76.09375 53.453125 76.207031 54.246094 76.210938 L 54.242188 74.941406 C 53.800781 74.9375 53.367188 74.894531 52.933594 74.808594 C 52.5 74.722656 52.078125 74.59375 51.671875 74.421875 C 51.265625 74.253906 50.875 74.046875 50.507812 73.800781 C 50.140625 73.554688 49.800781 73.277344 49.488281 72.964844 C 49.175781 72.652344 48.898438 72.3125 48.652344 71.945312 C 48.40625 71.578125 48.199219 71.1875 48.03125 70.78125 C 47.859375 70.375 47.730469 69.953125 47.644531 69.519531 C 47.558594 69.085938 47.511719 68.652344 47.511719 68.210938 C 47.511719 67.769531 47.554688 67.332031 47.640625 66.898438 C 47.722656 66.46875 47.851562 66.046875 48.019531 65.640625 C 48.1875 65.234375 48.394531 64.847656 48.636719 64.480469 C 48.882812 64.113281 49.160156 63.777344 49.46875 63.464844 C 49.78125 63.152344 50.121094 62.875 50.484375 62.632812 C 50.851562 62.386719 51.238281 62.179688 51.644531 62.011719 C 52.054688 61.84375 52.472656 61.71875 52.90625 61.632812 C 53.335938 61.546875 53.773438 61.507812 54.214844 61.507812 L 61.402344 61.53125 L 61.398438 60.261719 L 54.210938 60.246094 C 53.152344 60.242188 52.136719 60.441406 51.15625 60.84375 C 50.179688 61.246094 49.320312 61.820312 48.574219 62.566406 Z M 39.554688 53.550781 C 38.835938 54.269531 38.175781 55.035156 37.570312 55.851562 C 36.964844 56.667969 36.421875 57.527344 35.945312 58.425781 C 35.464844 59.320312 35.054688 60.25 34.714844 61.207031 C 34.371094 62.164062 34.101562 63.144531 33.90625 64.144531 C 33.710938 65.140625 33.585938 66.148438 33.539062 67.167969 C 33.492188 68.183594 33.519531 69.199219 33.621094 70.214844 C 33.722656 71.226562 33.898438 72.230469 34.148438 73.21875 C 34.398438 74.207031 34.71875 75.171875 35.109375 76.113281 C 35.5 77.054688 35.960938 77.964844 36.484375 78.839844 C 37.011719 79.714844 37.597656 80.546875 38.246094 81.335938 C 38.894531 82.125 39.597656 82.859375 40.351562 83.546875 C 41.109375 84.230469 41.910156 84.859375 42.757812 85.425781 C 43.609375 85.992188 44.492188 86.496094 45.414062 86.933594 C 46.335938 87.371094 47.285156 87.738281 48.261719 88.035156 C 49.234375 88.332031 50.226562 88.554688 51.234375 88.707031 C 52.242188 88.859375 53.257812 88.933594 54.277344 88.9375 L 54.273438 87.664062 C 53.640625 87.660156 53.007812 87.621094 52.378906 87.550781 C 51.75 87.484375 51.125 87.382812 50.503906 87.253906 C 49.886719 87.125 49.273438 86.964844 48.667969 86.777344 C 48.0625 86.585938 47.46875 86.367188 46.886719 86.121094 C 46.300781 85.875 45.730469 85.597656 45.171875 85.296875 C 44.617188 84.992188 44.074219 84.664062 43.550781 84.308594 C 43.027344 83.953125 42.519531 83.570312 42.03125 83.164062 C 41.542969 82.761719 41.074219 82.332031 40.628906 81.882812 C 40.183594 81.433594 39.757812 80.960938 39.359375 80.46875 C 38.957031 79.976562 38.582031 79.46875 38.230469 78.9375 C 37.878906 78.410156 37.554688 77.867188 37.257812 77.308594 C 36.957031 76.746094 36.6875 76.175781 36.445312 75.589844 C 36.203125 75.003906 35.992188 74.40625 35.808594 73.800781 C 35.625 73.195312 35.46875 72.578125 35.34375 71.957031 C 35.222656 71.335938 35.128906 70.710938 35.066406 70.082031 C 35 69.453125 34.96875 68.820312 34.96875 68.1875 C 34.96875 67.554688 34.996094 66.921875 35.058594 66.292969 C 35.117188 65.664062 35.207031 65.039062 35.328125 64.417969 C 35.453125 63.796875 35.601562 63.183594 35.785156 62.578125 C 35.964844 61.972656 36.175781 61.375 36.417969 60.792969 C 36.65625 60.207031 36.921875 59.632812 37.21875 59.078125 C 37.515625 58.519531 37.835938 57.976562 38.1875 57.449219 C 38.535156 56.921875 38.910156 56.414062 39.308594 55.921875 C 39.707031 55.433594 40.128906 54.964844 40.574219 54.515625 C 41.015625 54.066406 41.484375 53.640625 41.96875 53.238281 C 42.457031 52.835938 42.960938 52.457031 43.484375 52.101562 C 44.007812 51.75 44.546875 51.421875 45.101562 51.121094 C 45.660156 50.820312 46.226562 50.546875 46.8125 50.304688 C 47.394531 50.058594 47.988281 49.84375 48.589844 49.65625 C 49.195312 49.46875 49.808594 49.3125 50.425781 49.183594 C 51.046875 49.058594 51.671875 48.960938 52.300781 48.894531 C 52.929688 48.828125 53.558594 48.792969 54.195312 48.789062 L 61.363281 48.804688 L 61.359375 47.535156 L 54.191406 47.519531 C 52.828125 47.511719 51.480469 47.640625 50.148438 47.902344 C 48.816406 48.164062 47.519531 48.550781 46.265625 49.070312 C 45.007812 49.585938 43.816406 50.222656 42.6875 50.980469 C 41.558594 51.734375 40.519531 52.59375 39.5625 53.554688 Z M 27.164062 68.171875 C 27.167969 69.058594 27.210938 69.941406 27.300781 70.824219 C 27.390625 71.707031 27.519531 72.582031 27.695312 73.453125 C 27.871094 74.324219 28.085938 75.183594 28.347656 76.03125 C 28.605469 76.878906 28.90625 77.714844 29.246094 78.535156 C 29.585938 79.355469 29.96875 80.15625 30.386719 80.9375 C 30.808594 81.722656 31.261719 82.480469 31.757812 83.21875 C 32.25 83.957031 32.78125 84.671875 33.34375 85.355469 C 33.910156 86.042969 34.503906 86.699219 35.132812 87.328125 C 35.761719 87.957031 36.417969 88.554688 37.105469 89.117188 C 37.792969 89.679688 38.503906 90.210938 39.242188 90.703125 C 39.980469 91.199219 40.742188 91.65625 41.523438 92.074219 C 42.304688 92.492188 43.105469 92.875 43.925781 93.214844 C 44.746094 93.554688 45.582031 93.855469 46.429688 94.113281 C 47.277344 94.375 48.136719 94.589844 49.007812 94.765625 C 49.878906 94.941406 50.753906 95.070312 51.636719 95.160156 C 52.519531 95.25 53.402344 95.292969 54.289062 95.296875 L 54.285156 94.027344 C 53.441406 94.023438 52.597656 93.980469 51.757812 93.898438 C 50.917969 93.8125 50.082031 93.6875 49.253906 93.519531 C 48.421875 93.355469 47.605469 93.148438 46.796875 92.898438 C 45.988281 92.652344 45.191406 92.367188 44.410156 92.042969 C 43.628906 91.71875 42.863281 91.355469 42.117188 90.957031 C 41.371094 90.554688 40.648438 90.121094 39.945312 89.648438 C 39.242188 89.179688 38.5625 88.675781 37.90625 88.136719 C 37.253906 87.597656 36.628906 87.03125 36.027344 86.433594 C 35.429688 85.835938 34.863281 85.207031 34.324219 84.554688 C 33.785156 83.898438 33.28125 83.21875 32.8125 82.515625 C 32.339844 81.8125 31.90625 81.089844 31.507812 80.34375 C 31.105469 79.597656 30.742188 78.832031 30.417969 78.050781 C 30.09375 77.269531 29.808594 76.476562 29.5625 75.664062 C 29.3125 74.855469 29.105469 74.039062 28.941406 73.207031 C 28.773438 72.378906 28.648438 71.542969 28.5625 70.703125 C 28.480469 69.863281 28.4375 69.019531 28.433594 68.175781 C 28.433594 67.328125 28.472656 66.488281 28.554688 65.644531 C 28.632812 64.804688 28.757812 63.96875 28.917969 63.140625 C 29.082031 62.3125 29.285156 61.496094 29.53125 60.6875 C 29.773438 59.878906 30.054688 59.085938 30.378906 58.304688 C 30.699219 57.523438 31.058594 56.761719 31.457031 56.019531 C 31.851562 55.273438 32.285156 54.550781 32.753906 53.851562 C 33.21875 53.148438 33.722656 52.472656 34.257812 51.820312 C 34.789062 51.167969 35.355469 50.542969 35.953125 49.945312 C 36.550781 49.351562 37.171875 48.785156 37.824219 48.25 C 38.476562 47.714844 39.152344 47.214844 39.855469 46.746094 C 40.558594 46.277344 41.28125 45.847656 42.023438 45.449219 C 42.769531 45.054688 43.53125 44.695312 44.3125 44.371094 C 45.089844 44.050781 45.886719 43.765625 46.691406 43.523438 C 47.5 43.28125 48.320312 43.078125 49.148438 42.914062 C 49.976562 42.75 50.8125 42.628906 51.652344 42.546875 C 52.492188 42.46875 53.335938 42.425781 54.179688 42.429688 L 61.34375 42.445312 L 61.339844 41.175781 L 54.175781 41.160156 C 53.289062 41.15625 52.40625 41.199219 51.523438 41.285156 C 50.640625 41.367188 49.765625 41.496094 48.898438 41.667969 C 48.027344 41.839844 47.167969 42.054688 46.320312 42.308594 C 45.472656 42.5625 44.640625 42.859375 43.820312 43.199219 C 43.003906 43.535156 42.203125 43.914062 41.421875 44.328125 C 40.640625 44.746094 39.882812 45.199219 39.148438 45.691406 C 38.410156 46.179688 37.703125 46.707031 37.019531 47.269531 C 36.332031 47.828125 35.679688 48.421875 35.054688 49.046875 C 34.425781 49.671875 33.835938 50.328125 33.273438 51.011719 C 32.710938 51.695312 32.1875 52.40625 31.695312 53.140625 C 31.203125 53.878906 30.75 54.636719 30.335938 55.417969 C 29.917969 56.199219 29.542969 57 29.203125 57.816406 C 28.867188 58.636719 28.570312 59.46875 28.3125 60.316406 C 28.058594 61.164062 27.84375 62.023438 27.675781 62.890625 C 27.503906 63.761719 27.375 64.636719 27.289062 65.519531 C 27.203125 66.398438 27.164062 67.285156 27.164062 68.171875 Z M 27.164062 68.171875 " clip-rule="nonzero"/></clipPath><linearGradient x1="-4011.406036" gradientTransform="matrix(0.167704, 0.000350374, 0.000350374, 0.167704, 698.734066, -537.344576)" y1="3456.599384" x2="-3758.998066" gradientUnits="userSpaceOnUse" y2="3737.051755" id="99d2f11600"><stop stop-opacity="1" stop-color="rgb(63.09967%, 0%, 92.89856%)" offset="0"/><stop stop-opacity="1" stop-color="rgb(63.09967%, 0%, 92.89856%)" offset="0.25"/><stop stop-opacity="1" stop-color="rgb(63.09967%, 0%, 92.89856%)" offset="0.363197"/><stop stop-opacity="1" stop-color="rgb(63.09967%, 0%, 92.89856%)" offset="0.375"/><stop stop-opacity="1" stop-color="rgb(63.09967%, 0%, 92.89856%)" offset="0.4375"/><stop stop-opacity="1" stop-color="rgb(62.988281%, 0.038147%, 92.910767%)" offset="0.46875"/><stop stop-opacity="1" stop-color="rgb(61.730957%, 0.476074%, 93.052673%)" offset="0.472656"/><stop stop-opacity="1" stop-color="rgb(60.585022%, 0.875854%, 93.182373%)" offset="0.476563"/><stop stop-opacity="1" stop-color="rgb(59.439087%, 1.275635%, 93.310547%)" offset="0.480469"/><stop stop-opacity="1" stop-color="rgb(58.293152%, 1.675415%, 93.440247%)" offset="0.484375"/><stop stop-opacity="1" stop-color="rgb(57.145691%, 2.075195%, 93.56842%)" offset="0.488281"/><stop stop-opacity="1" stop-color="rgb(55.999756%, 2.474976%, 93.69812%)" offset="0.492188"/><stop stop-opacity="1" stop-color="rgb(54.852295%, 2.874756%, 93.826294%)" offset="0.496094"/><stop stop-opacity="1" stop-color="rgb(53.70636%, 3.274536%, 93.955994%)" offset="0.5"/><stop stop-opacity="1" stop-color="rgb(52.560425%, 3.672791%, 94.084167%)" offset="0.503906"/><stop stop-opacity="1" stop-color="rgb(51.41449%, 4.072571%, 94.213867%)" offset="0.507812"/><stop stop-opacity="1" stop-color="rgb(50.267029%, 4.472351%, 94.342041%)" offset="0.511719"/><stop stop-opacity="1" stop-color="rgb(49.121094%, 4.872131%, 94.471741%)" offset="0.515625"/><stop stop-opacity="1" stop-color="rgb(47.975159%, 5.271912%, 94.599915%)" offset="0.519531"/><stop stop-opacity="1" stop-color="rgb(46.829224%, 5.671692%, 94.729614%)" offset="0.523438"/><stop stop-opacity="1" stop-color="rgb(45.681763%, 6.071472%, 94.857788%)" offset="0.527344"/><stop stop-opacity="1" stop-color="rgb(44.535828%, 6.471252%, 94.987488%)" offset="0.53125"/><stop stop-opacity="1" stop-color="rgb(43.388367%, 6.871033%, 95.115662%)" offset="0.535156"/><stop stop-opacity="1" stop-color="rgb(42.242432%, 7.270813%, 95.245361%)" offset="0.539062"/><stop stop-opacity="1" stop-color="rgb(41.096497%, 7.670593%, 95.373535%)" offset="0.542969"/><stop stop-opacity="1" stop-color="rgb(39.950562%, 8.070374%, 95.503235%)" offset="0.546875"/><stop stop-opacity="1" stop-color="rgb(38.803101%, 8.470154%, 95.632935%)" offset="0.550781"/><stop stop-opacity="1" stop-color="rgb(37.657166%, 8.869934%, 95.762634%)" offset="0.554688"/><stop stop-opacity="1" stop-color="rgb(36.51123%, 9.269714%, 95.890808%)" offset="0.558594"/><stop stop-opacity="1" stop-color="rgb(35.365295%, 9.669495%, 96.020508%)" offset="0.5625"/><stop stop-opacity="1" stop-color="rgb(34.217834%, 10.069275%, 96.148682%)" offset="0.566406"/><stop stop-opacity="1" stop-color="rgb(33.071899%, 10.469055%, 96.278381%)" offset="0.570312"/><stop stop-opacity="1" stop-color="rgb(31.924438%, 10.86731%, 96.406555%)" offset="0.574219"/><stop stop-opacity="1" stop-color="rgb(30.778503%, 11.26709%, 96.536255%)" offset="0.578125"/><stop stop-opacity="1" stop-color="rgb(29.632568%, 11.66687%, 96.664429%)" offset="0.582031"/><stop stop-opacity="1" stop-color="rgb(28.486633%, 12.06665%, 96.794128%)" offset="0.585938"/><stop stop-opacity="1" stop-color="rgb(27.339172%, 12.466431%, 96.922302%)" offset="0.589844"/><stop stop-opacity="1" stop-color="rgb(26.193237%, 12.866211%, 97.052002%)" offset="0.59375"/><stop stop-opacity="1" stop-color="rgb(25.047302%, 13.265991%, 97.180176%)" offset="0.597656"/><stop stop-opacity="1" stop-color="rgb(23.901367%, 13.665771%, 97.309875%)" offset="0.601562"/><stop stop-opacity="1" stop-color="rgb(22.753906%, 14.065552%, 97.438049%)" offset="0.605469"/><stop stop-opacity="1" stop-color="rgb(21.607971%, 14.465332%, 97.567749%)" offset="0.609375"/><stop stop-opacity="1" stop-color="rgb(20.46051%, 14.865112%, 97.695923%)" offset="0.613281"/><stop stop-opacity="1" stop-color="rgb(19.314575%, 15.264893%, 97.825623%)" offset="0.617188"/><stop stop-opacity="1" stop-color="rgb(18.16864%, 15.664673%, 97.953796%)" offset="0.621094"/><stop stop-opacity="1" stop-color="rgb(17.022705%, 16.064453%, 98.083496%)" offset="0.625"/><stop stop-opacity="1" stop-color="rgb(15.875244%, 16.464233%, 98.21167%)" offset="0.628906"/><stop stop-opacity="1" stop-color="rgb(14.729309%, 16.864014%, 98.34137%)" offset="0.632812"/><stop stop-opacity="1" stop-color="rgb(13.583374%, 17.262268%, 98.469543%)" offset="0.636719"/><stop stop-opacity="1" stop-color="rgb(12.437439%, 17.662048%, 98.599243%)" offset="0.640625"/><stop stop-opacity="1" stop-color="rgb(11.289978%, 18.061829%, 98.727417%)" offset="0.644531"/><stop stop-opacity="1" stop-color="rgb(10.144043%, 18.461609%, 98.857117%)" offset="0.648438"/><stop stop-opacity="1" stop-color="rgb(8.996582%, 18.861389%, 98.985291%)" offset="0.652344"/><stop stop-opacity="1" stop-color="rgb(7.850647%, 19.261169%, 99.11499%)" offset="0.65625"/><stop stop-opacity="1" stop-color="rgb(6.704712%, 19.66095%, 99.24469%)" offset="0.660156"/><stop stop-opacity="1" stop-color="rgb(5.558777%, 20.06073%, 99.37439%)" offset="0.664062"/><stop stop-opacity="1" stop-color="rgb(4.411316%, 20.46051%, 99.502563%)" offset="0.667969"/><stop stop-opacity="1" stop-color="rgb(3.265381%, 20.860291%, 99.632263%)" offset="0.671875"/><stop stop-opacity="1" stop-color="rgb(2.119446%, 21.260071%, 99.760437%)" offset="0.675781"/><stop stop-opacity="1" stop-color="rgb(0.973511%, 21.659851%, 99.890137%)" offset="0.679688"/><stop stop-opacity="1" stop-color="rgb(0.486755%, 21.829224%, 99.945068%)" offset="0.683594"/><stop stop-opacity="1" stop-color="rgb(0%, 21.998596%, 100%)" offset="0.6875"/><stop stop-opacity="1" stop-color="rgb(0%, 21.998596%, 100%)" offset="0.75"/><stop stop-opacity="1" stop-color="rgb(0%, 21.998596%, 100%)" offset="1"/></linearGradient><clipPath id="a8f690c569"><path d="M 79 41 L 109 41 L 109 62 L 79 62 Z M 79 41 " clip-rule="nonzero"/></clipPath><clipPath id="30a455a65d"><path d="M 90.550781 72.265625 L 69.617188 51.332031 L 89.414062 31.535156 L 110.347656 52.46875 Z M 90.550781 72.265625 " clip-rule="nonzero"/></clipPath><clipPath id="e2c8a0c421"><path d="M 90.550781 72.265625 L 69.617188 51.332031 L 89.414062 31.535156 L 110.347656 52.46875 Z M 90.550781 72.265625 " clip-rule="nonzero"/></clipPath><clipPath id="30cb01d09a"><path d="M 95.160156 53.882812 L 79.828125 53.898438 L 79.828125 55.171875 L 95.160156 55.15625 Z M 79.824219 42.429688 L 90.585938 42.417969 L 90.585938 41.144531 L 79.824219 41.15625 Z M 79.832031 45.609375 L 98.007812 45.589844 L 98.007812 44.316406 L 79.832031 44.335938 Z M 79.832031 60.273438 L 79.832031 61.542969 L 100.390625 61.523438 L 100.394531 60.253906 Z M 79.824219 58.363281 L 104.449219 58.335938 L 104.449219 57.066406 L 79.828125 57.085938 Z M 79.824219 48.804688 L 103.472656 48.777344 L 103.472656 47.503906 L 79.828125 47.527344 Z M 79.828125 51.984375 L 108.5625 51.957031 L 108.5625 50.683594 L 79.828125 50.714844 Z M 79.828125 51.984375 " clip-rule="nonzero"/></clipPath><linearGradient x1="-3630.199557" gradientTransform="matrix(0.168007, -0.000172719, -0.000172719, 0.168007, 690.265903, -489.50683)" y1="3215.53" x2="-3459.001742" gradientUnits="userSpaceOnUse" y2="3215.53" id="170f16e48d"><stop stop-opacity="1" stop-color="rgb(54.899597%, 0%, 92.89856%)" offset="0"/><stop stop-opacity="1" stop-color="rgb(55.038452%, 0.344849%, 92.875671%)" offset="0.00390625"/><stop stop-opacity="1" stop-color="rgb(55.177307%, 0.691223%, 92.854309%)" offset="0.0078125"/><stop stop-opacity="1" stop-color="rgb(55.317688%, 1.042175%, 92.831421%)" offset="0.0117188"/><stop stop-opacity="1" stop-color="rgb(55.459595%, 1.393127%, 92.808533%)" offset="0.015625"/><stop stop-opacity="1" stop-color="rgb(55.599976%, 1.74408%, 92.785645%)" offset="0.0195313"/><stop stop-opacity="1" stop-color="rgb(55.741882%, 2.095032%, 92.764282%)" offset="0.0234375"/><stop stop-opacity="1" stop-color="rgb(55.882263%, 2.445984%, 92.741394%)" offset="0.0273438"/><stop stop-opacity="1" stop-color="rgb(56.02417%, 2.796936%, 92.718506%)" offset="0.03125"/><stop stop-opacity="1" stop-color="rgb(56.164551%, 3.147888%, 92.695618%)" offset="0.0351563"/><stop stop-opacity="1" stop-color="rgb(56.306458%, 3.49884%, 92.672729%)" offset="0.0390625"/><stop stop-opacity="1" stop-color="rgb(56.446838%, 3.849792%, 92.649841%)" offset="0.0429688"/><stop stop-opacity="1" stop-color="rgb(56.588745%, 4.200745%, 92.628479%)" offset="0.046875"/><stop stop-opacity="1" stop-color="rgb(56.729126%, 4.551697%, 92.605591%)" offset="0.0507812"/><stop stop-opacity="1" stop-color="rgb(56.871033%, 4.902649%, 92.582703%)" offset="0.0546875"/><stop stop-opacity="1" stop-color="rgb(57.011414%, 5.253601%, 92.559814%)" offset="0.0585938"/><stop stop-opacity="1" stop-color="rgb(57.15332%, 5.604553%, 92.536926%)" offset="0.0625"/><stop stop-opacity="1" stop-color="rgb(57.293701%, 5.955505%, 92.514038%)" offset="0.0664063"/><stop stop-opacity="1" stop-color="rgb(57.434082%, 6.306458%, 92.49115%)" offset="0.0703125"/><stop stop-opacity="1" stop-color="rgb(57.574463%, 6.65741%, 92.468262%)" offset="0.0742188"/><stop stop-opacity="1" stop-color="rgb(57.71637%, 7.008362%, 92.446899%)" offset="0.078125"/><stop stop-opacity="1" stop-color="rgb(57.85675%, 7.359314%, 92.424011%)" offset="0.0820313"/><stop stop-opacity="1" stop-color="rgb(57.998657%, 7.710266%, 92.401123%)" offset="0.0859375"/><stop stop-opacity="1" stop-color="rgb(58.139038%, 8.061218%, 92.378235%)" offset="0.0898438"/><stop stop-opacity="1" stop-color="rgb(58.280945%, 8.41217%, 92.355347%)" offset="0.09375"/><stop stop-opacity="1" stop-color="rgb(58.421326%, 8.763123%, 92.332458%)" offset="0.0976563"/><stop stop-opacity="1" stop-color="rgb(58.563232%, 9.114075%, 92.311096%)" offset="0.101563"/><stop stop-opacity="1" stop-color="rgb(58.703613%, 9.465027%, 92.288208%)" offset="0.105469"/><stop stop-opacity="1" stop-color="rgb(58.84552%, 9.815979%, 92.26532%)" offset="0.109375"/><stop stop-opacity="1" stop-color="rgb(58.985901%, 10.166931%, 92.242432%)" offset="0.113281"/><stop stop-opacity="1" stop-color="rgb(59.127808%, 10.517883%, 92.219543%)" offset="0.117188"/><stop stop-opacity="1" stop-color="rgb(59.268188%, 10.868835%, 92.196655%)" offset="0.121094"/><stop stop-opacity="1" stop-color="rgb(59.410095%, 11.219788%, 92.173767%)" offset="0.125"/><stop stop-opacity="1" stop-color="rgb(59.550476%, 11.57074%, 92.150879%)" offset="0.128906"/><stop stop-opacity="1" stop-color="rgb(59.692383%, 11.921692%, 92.129517%)" offset="0.132813"/><stop stop-opacity="1" stop-color="rgb(59.832764%, 12.272644%, 92.106628%)" offset="0.136719"/><stop stop-opacity="1" stop-color="rgb(59.97467%, 12.623596%, 92.08374%)" offset="0.140625"/><stop stop-opacity="1" stop-color="rgb(60.115051%, 12.974548%, 92.060852%)" offset="0.144531"/><stop stop-opacity="1" stop-color="rgb(60.256958%, 13.3255%, 92.037964%)" offset="0.148438"/><stop stop-opacity="1" stop-color="rgb(60.397339%, 13.676453%, 92.015076%)" offset="0.152344"/><stop stop-opacity="1" stop-color="rgb(60.539246%, 14.028931%, 91.993713%)" offset="0.15625"/><stop stop-opacity="1" stop-color="rgb(60.679626%, 14.379883%, 91.970825%)" offset="0.160156"/><stop stop-opacity="1" stop-color="rgb(60.821533%, 14.730835%, 91.947937%)" offset="0.164063"/><stop stop-opacity="1" stop-color="rgb(60.961914%, 15.081787%, 91.925049%)" offset="0.167969"/><stop stop-opacity="1" stop-color="rgb(61.103821%, 15.432739%, 91.902161%)" offset="0.171875"/><stop stop-opacity="1" stop-color="rgb(61.244202%, 15.783691%, 91.879272%)" offset="0.175781"/><stop stop-opacity="1" stop-color="rgb(61.386108%, 16.134644%, 91.856384%)" offset="0.179688"/><stop stop-opacity="1" stop-color="rgb(61.526489%, 16.485596%, 91.833496%)" offset="0.183594"/><stop stop-opacity="1" stop-color="rgb(61.668396%, 16.836548%, 91.812134%)" offset="0.1875"/><stop stop-opacity="1" stop-color="rgb(61.808777%, 17.1875%, 91.789246%)" offset="0.191406"/><stop stop-opacity="1" stop-color="rgb(61.949158%, 17.538452%, 91.766357%)" offset="0.195312"/><stop stop-opacity="1" stop-color="rgb(62.089539%, 17.889404%, 91.743469%)" offset="0.199219"/><stop stop-opacity="1" stop-color="rgb(62.231445%, 18.240356%, 91.720581%)" offset="0.203125"/><stop stop-opacity="1" stop-color="rgb(62.371826%, 18.591309%, 91.697693%)" offset="0.207031"/><stop stop-opacity="1" stop-color="rgb(62.513733%, 18.942261%, 91.676331%)" offset="0.210938"/><stop stop-opacity="1" stop-color="rgb(62.654114%, 19.293213%, 91.653442%)" offset="0.214844"/><stop stop-opacity="1" stop-color="rgb(62.796021%, 19.644165%, 91.630554%)" offset="0.21875"/><stop stop-opacity="1" stop-color="rgb(62.936401%, 19.995117%, 91.607666%)" offset="0.222656"/><stop stop-opacity="1" stop-color="rgb(63.078308%, 20.346069%, 91.584778%)" offset="0.226563"/><stop stop-opacity="1" stop-color="rgb(63.218689%, 20.697021%, 91.56189%)" offset="0.230469"/><stop stop-opacity="1" stop-color="rgb(63.360596%, 21.047974%, 91.539001%)" offset="0.234375"/><stop stop-opacity="1" stop-color="rgb(63.500977%, 21.398926%, 91.516113%)" offset="0.238281"/><stop stop-opacity="1" stop-color="rgb(63.642883%, 21.749878%, 91.494751%)" offset="0.242188"/><stop stop-opacity="1" stop-color="rgb(63.783264%, 22.10083%, 91.471863%)" offset="0.246094"/><stop stop-opacity="1" stop-color="rgb(63.925171%, 22.451782%, 91.448975%)" offset="0.25"/><stop stop-opacity="1" stop-color="rgb(64.065552%, 22.802734%, 91.426086%)" offset="0.253906"/><stop stop-opacity="1" stop-color="rgb(64.207458%, 23.153687%, 91.403198%)" offset="0.257813"/><stop stop-opacity="1" stop-color="rgb(64.347839%, 23.504639%, 91.38031%)" offset="0.261719"/><stop stop-opacity="1" stop-color="rgb(64.489746%, 23.855591%, 91.358948%)" offset="0.265625"/><stop stop-opacity="1" stop-color="rgb(64.630127%, 24.206543%, 91.33606%)" offset="0.269531"/><stop stop-opacity="1" stop-color="rgb(64.772034%, 24.557495%, 91.313171%)" offset="0.273438"/><stop stop-opacity="1" stop-color="rgb(64.912415%, 24.908447%, 91.290283%)" offset="0.277344"/><stop stop-opacity="1" stop-color="rgb(65.054321%, 25.259399%, 91.267395%)" offset="0.28125"/><stop stop-opacity="1" stop-color="rgb(65.194702%, 25.610352%, 91.244507%)" offset="0.285156"/><stop stop-opacity="1" stop-color="rgb(65.336609%, 25.961304%, 91.221619%)" offset="0.289063"/><stop stop-opacity="1" stop-color="rgb(65.47699%, 26.312256%, 91.19873%)" offset="0.292969"/><stop stop-opacity="1" stop-color="rgb(65.618896%, 26.663208%, 91.177368%)" offset="0.296875"/><stop stop-opacity="1" stop-color="rgb(65.759277%, 27.01416%, 91.15448%)" offset="0.300781"/><stop stop-opacity="1" stop-color="rgb(65.901184%, 27.365112%, 91.131592%)" offset="0.304688"/><stop stop-opacity="1" stop-color="rgb(66.041565%, 27.716064%, 91.108704%)" offset="0.308594"/><stop stop-opacity="1" stop-color="rgb(66.183472%, 28.067017%, 91.085815%)" offset="0.3125"/><stop stop-opacity="1" stop-color="rgb(66.323853%, 28.417969%, 91.062927%)" offset="0.316406"/><stop stop-opacity="1" stop-color="rgb(66.464233%, 28.768921%, 91.041565%)" offset="0.320313"/><stop stop-opacity="1" stop-color="rgb(66.604614%, 29.119873%, 91.018677%)" offset="0.324219"/><stop stop-opacity="1" stop-color="rgb(66.746521%, 29.470825%, 90.995789%)" offset="0.328125"/><stop stop-opacity="1" stop-color="rgb(66.886902%, 29.821777%, 90.9729%)" offset="0.332031"/><stop stop-opacity="1" stop-color="rgb(67.028809%, 30.172729%, 90.950012%)" offset="0.335938"/><stop stop-opacity="1" stop-color="rgb(67.169189%, 30.523682%, 90.927124%)" offset="0.339844"/><stop stop-opacity="1" stop-color="rgb(67.311096%, 30.874634%, 90.905762%)" offset="0.34375"/><stop stop-opacity="1" stop-color="rgb(67.451477%, 31.225586%, 90.882874%)" offset="0.347656"/><stop stop-opacity="1" stop-color="rgb(67.593384%, 31.578064%, 90.859985%)" offset="0.351563"/><stop stop-opacity="1" stop-color="rgb(67.733765%, 31.929016%, 90.837097%)" offset="0.355469"/><stop stop-opacity="1" stop-color="rgb(67.875671%, 32.279968%, 90.814209%)" offset="0.359375"/><stop stop-opacity="1" stop-color="rgb(68.016052%, 32.63092%, 90.791321%)" offset="0.363281"/><stop stop-opacity="1" stop-color="rgb(68.157959%, 32.981873%, 90.768433%)" offset="0.367188"/><stop stop-opacity="1" stop-color="rgb(68.29834%, 33.332825%, 90.745544%)" offset="0.371094"/><stop stop-opacity="1" stop-color="rgb(68.440247%, 33.683777%, 90.724182%)" offset="0.375"/><stop stop-opacity="1" stop-color="rgb(68.580627%, 34.034729%, 90.701294%)" offset="0.378906"/><stop stop-opacity="1" stop-color="rgb(68.722534%, 34.385681%, 90.678406%)" offset="0.382813"/><stop stop-opacity="1" stop-color="rgb(68.862915%, 34.736633%, 90.655518%)" offset="0.386719"/><stop stop-opacity="1" stop-color="rgb(69.004822%, 35.087585%, 90.632629%)" offset="0.390625"/><stop stop-opacity="1" stop-color="rgb(69.145203%, 35.438538%, 90.609741%)" offset="0.394531"/><stop stop-opacity="1" stop-color="rgb(69.287109%, 35.78949%, 90.588379%)" offset="0.398438"/><stop stop-opacity="1" stop-color="rgb(69.42749%, 36.140442%, 90.565491%)" offset="0.402344"/><stop stop-opacity="1" stop-color="rgb(69.569397%, 36.491394%, 90.542603%)" offset="0.40625"/><stop stop-opacity="1" stop-color="rgb(69.709778%, 36.842346%, 90.519714%)" offset="0.410156"/><stop stop-opacity="1" stop-color="rgb(69.851685%, 37.193298%, 90.496826%)" offset="0.414063"/><stop stop-opacity="1" stop-color="rgb(69.992065%, 37.54425%, 90.473938%)" offset="0.417969"/><stop stop-opacity="1" stop-color="rgb(70.133972%, 37.895203%, 90.45105%)" offset="0.421875"/><stop stop-opacity="1" stop-color="rgb(70.274353%, 38.246155%, 90.428162%)" offset="0.425781"/><stop stop-opacity="1" stop-color="rgb(70.41626%, 38.597107%, 90.406799%)" offset="0.429688"/><stop stop-opacity="1" stop-color="rgb(70.556641%, 38.948059%, 90.383911%)" offset="0.433594"/><stop stop-opacity="1" stop-color="rgb(70.698547%, 39.299011%, 90.361023%)" offset="0.4375"/><stop stop-opacity="1" stop-color="rgb(70.838928%, 39.649963%, 90.338135%)" offset="0.441406"/><stop stop-opacity="1" stop-color="rgb(70.980835%, 40.000916%, 90.315247%)" offset="0.445313"/><stop stop-opacity="1" stop-color="rgb(71.121216%, 40.351868%, 90.292358%)" offset="0.449219"/><stop stop-opacity="1" stop-color="rgb(71.261597%, 40.70282%, 90.270996%)" offset="0.453125"/><stop stop-opacity="1" stop-color="rgb(71.401978%, 41.053772%, 90.248108%)" offset="0.457031"/><stop stop-opacity="1" stop-color="rgb(71.543884%, 41.404724%, 90.22522%)" offset="0.460938"/><stop stop-opacity="1" stop-color="rgb(71.684265%, 41.755676%, 90.202332%)" offset="0.464844"/><stop stop-opacity="1" stop-color="rgb(71.826172%, 42.106628%, 90.179443%)" offset="0.46875"/><stop stop-opacity="1" stop-color="rgb(71.966553%, 42.457581%, 90.156555%)" offset="0.472656"/><stop stop-opacity="1" stop-color="rgb(72.108459%, 42.808533%, 90.133667%)" offset="0.476563"/><stop stop-opacity="1" stop-color="rgb(72.24884%, 43.159485%, 90.110779%)" offset="0.480469"/><stop stop-opacity="1" stop-color="rgb(72.390747%, 43.510437%, 90.089417%)" offset="0.484375"/><stop stop-opacity="1" stop-color="rgb(72.531128%, 43.861389%, 90.066528%)" offset="0.488281"/><stop stop-opacity="1" stop-color="rgb(72.673035%, 44.212341%, 90.04364%)" offset="0.492188"/><stop stop-opacity="1" stop-color="rgb(72.813416%, 44.563293%, 90.020752%)" offset="0.496094"/><stop stop-opacity="1" stop-color="rgb(72.955322%, 44.914246%, 89.997864%)" offset="0.5"/><stop stop-opacity="1" stop-color="rgb(73.095703%, 45.265198%, 89.974976%)" offset="0.503906"/><stop stop-opacity="1" stop-color="rgb(73.23761%, 45.61615%, 89.953613%)" offset="0.507813"/><stop stop-opacity="1" stop-color="rgb(73.377991%, 45.967102%, 89.930725%)" offset="0.511719"/><stop stop-opacity="1" stop-color="rgb(73.519897%, 46.318054%, 89.907837%)" offset="0.515625"/><stop stop-opacity="1" stop-color="rgb(73.660278%, 46.669006%, 89.884949%)" offset="0.519531"/><stop stop-opacity="1" stop-color="rgb(73.802185%, 47.019958%, 89.862061%)" offset="0.523438"/><stop stop-opacity="1" stop-color="rgb(73.942566%, 47.370911%, 89.839172%)" offset="0.527344"/><stop stop-opacity="1" stop-color="rgb(74.084473%, 47.721863%, 89.816284%)" offset="0.53125"/><stop stop-opacity="1" stop-color="rgb(74.224854%, 48.072815%, 89.793396%)" offset="0.535156"/><stop stop-opacity="1" stop-color="rgb(74.36676%, 48.423767%, 89.772034%)" offset="0.539063"/><stop stop-opacity="1" stop-color="rgb(74.507141%, 48.774719%, 89.749146%)" offset="0.542969"/><stop stop-opacity="1" stop-color="rgb(74.649048%, 49.125671%, 89.726257%)" offset="0.546875"/><stop stop-opacity="1" stop-color="rgb(74.789429%, 49.476624%, 89.703369%)" offset="0.550781"/><stop stop-opacity="1" stop-color="rgb(74.931335%, 49.829102%, 89.680481%)" offset="0.554688"/><stop stop-opacity="1" stop-color="rgb(75.071716%, 50.180054%, 89.657593%)" offset="0.558594"/><stop stop-opacity="1" stop-color="rgb(75.213623%, 50.531006%, 89.63623%)" offset="0.5625"/><stop stop-opacity="1" stop-color="rgb(75.354004%, 50.881958%, 89.613342%)" offset="0.566406"/><stop stop-opacity="1" stop-color="rgb(75.495911%, 51.23291%, 89.590454%)" offset="0.570313"/><stop stop-opacity="1" stop-color="rgb(75.636292%, 51.583862%, 89.567566%)" offset="0.574219"/><stop stop-opacity="1" stop-color="rgb(75.776672%, 51.934814%, 89.544678%)" offset="0.578125"/><stop stop-opacity="1" stop-color="rgb(75.917053%, 52.285767%, 89.52179%)" offset="0.582031"/><stop stop-opacity="1" stop-color="rgb(76.05896%, 52.636719%, 89.498901%)" offset="0.585938"/><stop stop-opacity="1" stop-color="rgb(76.199341%, 52.987671%, 89.476013%)" offset="0.589844"/><stop stop-opacity="1" stop-color="rgb(76.341248%, 53.338623%, 89.454651%)" offset="0.59375"/><stop stop-opacity="1" stop-color="rgb(76.481628%, 53.689575%, 89.431763%)" offset="0.597656"/><stop stop-opacity="1" stop-color="rgb(76.623535%, 54.040527%, 89.408875%)" offset="0.601563"/><stop stop-opacity="1" stop-color="rgb(76.763916%, 54.391479%, 89.385986%)" offset="0.605469"/><stop stop-opacity="1" stop-color="rgb(76.905823%, 54.742432%, 89.363098%)" offset="0.609375"/><stop stop-opacity="1" stop-color="rgb(77.046204%, 55.093384%, 89.34021%)" offset="0.613281"/><stop stop-opacity="1" stop-color="rgb(77.18811%, 55.444336%, 89.318848%)" offset="0.617188"/><stop stop-opacity="1" stop-color="rgb(77.328491%, 55.795288%, 89.295959%)" offset="0.621094"/><stop stop-opacity="1" stop-color="rgb(77.470398%, 56.14624%, 89.273071%)" offset="0.625"/><stop stop-opacity="1" stop-color="rgb(77.610779%, 56.497192%, 89.250183%)" offset="0.628906"/><stop stop-opacity="1" stop-color="rgb(77.752686%, 56.848145%, 89.227295%)" offset="0.632813"/><stop stop-opacity="1" stop-color="rgb(77.893066%, 57.199097%, 89.204407%)" offset="0.636719"/><stop stop-opacity="1" stop-color="rgb(78.034973%, 57.550049%, 89.181519%)" offset="0.640625"/><stop stop-opacity="1" stop-color="rgb(78.175354%, 57.901001%, 89.15863%)" offset="0.644531"/><stop stop-opacity="1" stop-color="rgb(78.317261%, 58.251953%, 89.137268%)" offset="0.648438"/><stop stop-opacity="1" stop-color="rgb(78.457642%, 58.602905%, 89.11438%)" offset="0.652344"/><stop stop-opacity="1" stop-color="rgb(78.599548%, 58.953857%, 89.091492%)" offset="0.65625"/><stop stop-opacity="1" stop-color="rgb(78.739929%, 59.30481%, 89.068604%)" offset="0.660156"/><stop stop-opacity="1" stop-color="rgb(78.881836%, 59.655762%, 89.045715%)" offset="0.664063"/><stop stop-opacity="1" stop-color="rgb(79.022217%, 60.006714%, 89.022827%)" offset="0.667969"/><stop stop-opacity="1" stop-color="rgb(79.164124%, 60.357666%, 89.001465%)" offset="0.671875"/><stop stop-opacity="1" stop-color="rgb(79.304504%, 60.708618%, 88.978577%)" offset="0.675781"/><stop stop-opacity="1" stop-color="rgb(79.446411%, 61.05957%, 88.955688%)" offset="0.679688"/><stop stop-opacity="1" stop-color="rgb(79.586792%, 61.410522%, 88.9328%)" offset="0.683594"/><stop stop-opacity="1" stop-color="rgb(79.728699%, 61.761475%, 88.909912%)" offset="0.6875"/><stop stop-opacity="1" stop-color="rgb(79.86908%, 62.112427%, 88.887024%)" offset="0.691406"/><stop stop-opacity="1" stop-color="rgb(80.010986%, 62.463379%, 88.864136%)" offset="0.695313"/><stop stop-opacity="1" stop-color="rgb(80.151367%, 62.814331%, 88.841248%)" offset="0.699219"/><stop stop-opacity="1" stop-color="rgb(80.291748%, 63.165283%, 88.819885%)" offset="0.703125"/><stop stop-opacity="1" stop-color="rgb(80.432129%, 63.516235%, 88.796997%)" offset="0.707031"/><stop stop-opacity="1" stop-color="rgb(80.574036%, 63.867188%, 88.774109%)" offset="0.710938"/><stop stop-opacity="1" stop-color="rgb(80.714417%, 64.21814%, 88.751221%)" offset="0.714844"/><stop stop-opacity="1" stop-color="rgb(80.856323%, 64.569092%, 88.728333%)" offset="0.71875"/><stop stop-opacity="1" stop-color="rgb(80.996704%, 64.920044%, 88.705444%)" offset="0.722656"/><stop stop-opacity="1" stop-color="rgb(81.138611%, 65.270996%, 88.684082%)" offset="0.726563"/><stop stop-opacity="1" stop-color="rgb(81.278992%, 65.621948%, 88.661194%)" offset="0.730469"/><stop stop-opacity="1" stop-color="rgb(81.420898%, 65.9729%, 88.638306%)" offset="0.734375"/><stop stop-opacity="1" stop-color="rgb(81.561279%, 66.323853%, 88.615417%)" offset="0.738281"/><stop stop-opacity="1" stop-color="rgb(81.703186%, 66.674805%, 88.592529%)" offset="0.742188"/><stop stop-opacity="1" stop-color="rgb(81.843567%, 67.025757%, 88.569641%)" offset="0.746094"/><stop stop-opacity="1" stop-color="rgb(81.985474%, 67.378235%, 88.546753%)" offset="0.75"/><stop stop-opacity="1" stop-color="rgb(82.125854%, 67.729187%, 88.523865%)" offset="0.753906"/><stop stop-opacity="1" stop-color="rgb(82.267761%, 68.080139%, 88.502502%)" offset="0.757812"/><stop stop-opacity="1" stop-color="rgb(82.408142%, 68.431091%, 88.479614%)" offset="0.761719"/><stop stop-opacity="1" stop-color="rgb(82.550049%, 68.782043%, 88.456726%)" offset="0.765625"/><stop stop-opacity="1" stop-color="rgb(82.69043%, 69.132996%, 88.433838%)" offset="0.769531"/><stop stop-opacity="1" stop-color="rgb(82.832336%, 69.483948%, 88.41095%)" offset="0.773438"/><stop stop-opacity="1" stop-color="rgb(82.972717%, 69.8349%, 88.388062%)" offset="0.777344"/><stop stop-opacity="1" stop-color="rgb(83.114624%, 70.185852%, 88.366699%)" offset="0.78125"/><stop stop-opacity="1" stop-color="rgb(83.255005%, 70.536804%, 88.343811%)" offset="0.785156"/><stop stop-opacity="1" stop-color="rgb(83.396912%, 70.887756%, 88.320923%)" offset="0.789062"/><stop stop-opacity="1" stop-color="rgb(83.537292%, 71.238708%, 88.298035%)" offset="0.792969"/><stop stop-opacity="1" stop-color="rgb(83.679199%, 71.589661%, 88.275146%)" offset="0.796875"/><stop stop-opacity="1" stop-color="rgb(83.81958%, 71.940613%, 88.252258%)" offset="0.800781"/><stop stop-opacity="1" stop-color="rgb(83.961487%, 72.291565%, 88.22937%)" offset="0.804688"/><stop stop-opacity="1" stop-color="rgb(84.101868%, 72.642517%, 88.206482%)" offset="0.808594"/><stop stop-opacity="1" stop-color="rgb(84.243774%, 72.993469%, 88.18512%)" offset="0.8125"/><stop stop-opacity="1" stop-color="rgb(84.384155%, 73.344421%, 88.162231%)" offset="0.816406"/><stop stop-opacity="1" stop-color="rgb(84.526062%, 73.695374%, 88.139343%)" offset="0.820312"/><stop stop-opacity="1" stop-color="rgb(84.666443%, 74.046326%, 88.116455%)" offset="0.824219"/><stop stop-opacity="1" stop-color="rgb(84.806824%, 74.397278%, 88.093567%)" offset="0.828125"/><stop stop-opacity="1" stop-color="rgb(84.947205%, 74.74823%, 88.070679%)" offset="0.832031"/><stop stop-opacity="1" stop-color="rgb(85.089111%, 75.099182%, 88.049316%)" offset="0.835938"/><stop stop-opacity="1" stop-color="rgb(85.229492%, 75.450134%, 88.026428%)" offset="0.839844"/><stop stop-opacity="1" stop-color="rgb(85.371399%, 75.801086%, 88.00354%)" offset="0.84375"/><stop stop-opacity="1" stop-color="rgb(85.51178%, 76.152039%, 87.980652%)" offset="0.847656"/><stop stop-opacity="1" stop-color="rgb(85.653687%, 76.502991%, 87.957764%)" offset="0.851562"/><stop stop-opacity="1" stop-color="rgb(85.794067%, 76.853943%, 87.934875%)" offset="0.855469"/><stop stop-opacity="1" stop-color="rgb(85.935974%, 77.204895%, 87.911987%)" offset="0.859375"/><stop stop-opacity="1" stop-color="rgb(86.076355%, 77.555847%, 87.889099%)" offset="0.863281"/><stop stop-opacity="1" stop-color="rgb(86.218262%, 77.906799%, 87.867737%)" offset="0.867188"/><stop stop-opacity="1" stop-color="rgb(86.358643%, 78.257751%, 87.844849%)" offset="0.871094"/><stop stop-opacity="1" stop-color="rgb(86.500549%, 78.608704%, 87.82196%)" offset="0.875"/><stop stop-opacity="1" stop-color="rgb(86.64093%, 78.959656%, 87.799072%)" offset="0.878906"/><stop stop-opacity="1" stop-color="rgb(86.782837%, 79.310608%, 87.776184%)" offset="0.882813"/><stop stop-opacity="1" stop-color="rgb(86.923218%, 79.66156%, 87.753296%)" offset="0.886719"/><stop stop-opacity="1" stop-color="rgb(87.065125%, 80.012512%, 87.731934%)" offset="0.890625"/><stop stop-opacity="1" stop-color="rgb(87.205505%, 80.363464%, 87.709045%)" offset="0.894531"/><stop stop-opacity="1" stop-color="rgb(87.347412%, 80.714417%, 87.686157%)" offset="0.898438"/><stop stop-opacity="1" stop-color="rgb(87.487793%, 81.065369%, 87.663269%)" offset="0.902344"/><stop stop-opacity="1" stop-color="rgb(87.6297%, 81.416321%, 87.640381%)" offset="0.90625"/><stop stop-opacity="1" stop-color="rgb(87.770081%, 81.767273%, 87.617493%)" offset="0.910156"/><stop stop-opacity="1" stop-color="rgb(87.911987%, 82.118225%, 87.594604%)" offset="0.914063"/><stop stop-opacity="1" stop-color="rgb(88.052368%, 82.469177%, 87.571716%)" offset="0.917969"/><stop stop-opacity="1" stop-color="rgb(88.194275%, 82.820129%, 87.550354%)" offset="0.921875"/><stop stop-opacity="1" stop-color="rgb(88.334656%, 83.171082%, 87.527466%)" offset="0.925781"/><stop stop-opacity="1" stop-color="rgb(88.476562%, 83.522034%, 87.504578%)" offset="0.929688"/><stop stop-opacity="1" stop-color="rgb(88.616943%, 83.872986%, 87.481689%)" offset="0.933594"/><stop stop-opacity="1" stop-color="rgb(88.75885%, 84.223938%, 87.458801%)" offset="0.9375"/><stop stop-opacity="1" stop-color="rgb(88.899231%, 84.57489%, 87.435913%)" offset="0.941406"/><stop stop-opacity="1" stop-color="rgb(89.041138%, 84.927368%, 87.414551%)" offset="0.945313"/><stop stop-opacity="1" stop-color="rgb(89.181519%, 85.27832%, 87.391663%)" offset="0.949219"/><stop stop-opacity="1" stop-color="rgb(89.321899%, 85.629272%, 87.368774%)" offset="0.953125"/><stop stop-opacity="1" stop-color="rgb(89.46228%, 85.980225%, 87.345886%)" offset="0.957031"/><stop stop-opacity="1" stop-color="rgb(89.604187%, 86.331177%, 87.322998%)" offset="0.960938"/><stop stop-opacity="1" stop-color="rgb(89.744568%, 86.682129%, 87.30011%)" offset="0.964844"/><stop stop-opacity="1" stop-color="rgb(89.886475%, 87.033081%, 87.277222%)" offset="0.96875"/><stop stop-opacity="1" stop-color="rgb(90.026855%, 87.384033%, 87.254333%)" offset="0.972656"/><stop stop-opacity="1" stop-color="rgb(90.168762%, 87.734985%, 87.232971%)" offset="0.976563"/><stop stop-opacity="1" stop-color="rgb(90.309143%, 88.085938%, 87.210083%)" offset="0.980469"/><stop stop-opacity="1" stop-color="rgb(90.45105%, 88.43689%, 87.187195%)" offset="0.984375"/><stop stop-opacity="1" stop-color="rgb(90.591431%, 88.787842%, 87.164307%)" offset="0.988281"/><stop stop-opacity="1" stop-color="rgb(90.733337%, 89.138794%, 87.141418%)" offset="0.992188"/><stop stop-opacity="1" stop-color="rgb(90.866089%, 89.468384%, 87.120056%)" offset="0.996094"/><stop stop-opacity="1" stop-color="rgb(90.99884%, 89.7995%, 87.098694%)" offset="1"/></linearGradient><clipPath id="3db069b2cf"><path d="M 54 10 L 82 10 L 82 96 L 54 96 Z M 54 10 " clip-rule="nonzero"/></clipPath><clipPath id="e234841688"><path d="M 59.761719 100.902344 L 15.160156 56.304688 L 60.671875 10.792969 L 105.273438 55.394531 Z M 59.761719 100.902344 " clip-rule="nonzero"/></clipPath><clipPath id="0e296dcdaf"><path d="M 59.761719 100.902344 L 15.160156 56.304688 L 60.671875 10.792969 L 105.273438 55.394531 Z M 59.761719 100.902344 " clip-rule="nonzero"/></clipPath><clipPath id="87dd62e80b"><path d="M 54.105469 78.128906 L 54.105469 79.398438 C 54.839844 79.398438 55.5625 79.328125 56.28125 79.1875 C 57 79.042969 57.695312 78.832031 58.371094 78.554688 C 59.046875 78.273438 59.6875 77.933594 60.292969 77.527344 C 60.902344 77.121094 61.464844 76.660156 61.980469 76.144531 C 62.496094 75.628906 62.957031 75.066406 63.363281 74.457031 C 63.769531 73.847656 64.113281 73.207031 64.390625 72.53125 C 64.671875 71.855469 64.882812 71.160156 65.023438 70.441406 C 65.167969 69.726562 65.238281 69 65.238281 68.269531 L 65.144531 15.265625 L 63.875 13.996094 L 63.96875 68.265625 C 63.96875 68.914062 63.90625 69.558594 63.78125 70.195312 C 63.652344 70.828125 63.46875 71.445312 63.21875 72.046875 C 62.972656 72.644531 62.667969 73.210938 62.308594 73.75 C 61.949219 74.289062 61.539062 74.789062 61.082031 75.246094 C 60.625 75.703125 60.128906 76.113281 59.589844 76.472656 C 59.050781 76.832031 58.480469 77.132812 57.882812 77.382812 C 57.285156 77.628906 56.667969 77.816406 56.03125 77.941406 C 55.394531 78.066406 54.753906 78.128906 54.105469 78.128906 Z M 60.789062 68.265625 C 60.789062 68.707031 60.746094 69.140625 60.660156 69.574219 C 60.574219 70.003906 60.449219 70.425781 60.28125 70.832031 C 60.113281 71.238281 59.90625 71.621094 59.660156 71.988281 C 59.417969 72.351562 59.140625 72.691406 58.828125 73 C 58.519531 73.3125 58.179688 73.589844 57.816406 73.832031 C 57.449219 74.078125 57.066406 74.285156 56.660156 74.453125 C 56.253906 74.621094 55.832031 74.746094 55.402344 74.832031 C 54.96875 74.917969 54.535156 74.960938 54.09375 74.960938 L 54.097656 76.230469 C 54.621094 76.230469 55.136719 76.179688 55.652344 76.078125 C 56.164062 75.976562 56.664062 75.824219 57.144531 75.625 C 57.628906 75.425781 58.085938 75.179688 58.523438 74.890625 C 58.957031 74.597656 59.359375 74.269531 59.726562 73.898438 C 60.097656 73.53125 60.425781 73.128906 60.71875 72.695312 C 61.007812 72.257812 61.253906 71.800781 61.453125 71.316406 C 61.652344 70.835938 61.804688 70.335938 61.90625 69.824219 C 62.007812 69.308594 62.058594 68.792969 62.058594 68.269531 L 61.960938 12.082031 L 60.691406 10.8125 Z M 63.335938 77.5 C 62.117188 78.726562 60.707031 79.667969 59.109375 80.328125 C 57.507812 80.988281 55.84375 81.3125 54.109375 81.304688 L 54.113281 82.574219 C 55.054688 82.578125 55.984375 82.484375 56.90625 82.304688 C 57.828125 82.121094 58.722656 81.851562 59.59375 81.492188 C 60.460938 81.136719 61.285156 80.695312 62.066406 80.171875 C 62.847656 79.652344 63.570312 79.058594 64.234375 78.394531 C 64.898438 77.730469 65.492188 77.007812 66.011719 76.226562 C 66.535156 75.445312 66.972656 74.621094 67.332031 73.753906 C 67.691406 72.886719 67.960938 71.992188 68.144531 71.066406 C 68.324219 70.144531 68.414062 69.214844 68.414062 68.273438 L 68.324219 18.445312 L 67.054688 17.175781 L 67.144531 68.273438 C 67.152344 70.003906 66.824219 71.671875 66.164062 73.269531 C 65.503906 74.871094 64.5625 76.277344 63.335938 77.5 Z M 72.332031 86.496094 C 71.140625 87.691406 69.84375 88.761719 68.441406 89.699219 C 67.035156 90.640625 65.554688 91.433594 63.992188 92.078125 C 62.429688 92.722656 60.820312 93.207031 59.160156 93.53125 C 57.5 93.855469 55.824219 94.015625 54.132812 94.007812 L 54.132812 95.273438 C 55.019531 95.277344 55.902344 95.234375 56.78125 95.148438 C 57.664062 95.066406 58.539062 94.9375 59.40625 94.765625 C 60.273438 94.59375 61.128906 94.378906 61.976562 94.125 C 62.824219 93.871094 63.65625 93.574219 64.472656 93.234375 C 65.289062 92.898438 66.089844 92.523438 66.867188 92.105469 C 67.648438 91.691406 68.40625 91.238281 69.140625 90.746094 C 69.875 90.257812 70.585938 89.730469 71.269531 89.171875 C 71.953125 88.609375 72.605469 88.019531 73.230469 87.394531 C 73.855469 86.769531 74.449219 86.113281 75.007812 85.429688 C 75.570312 84.746094 76.09375 84.039062 76.585938 83.304688 C 77.074219 82.566406 77.527344 81.8125 77.945312 81.03125 C 78.359375 80.25 78.738281 79.453125 79.074219 78.636719 C 79.410156 77.816406 79.707031 76.984375 79.964844 76.140625 C 80.21875 75.292969 80.433594 74.4375 80.601562 73.566406 C 80.773438 72.699219 80.902344 71.824219 80.988281 70.945312 C 81.074219 70.0625 81.113281 69.179688 81.113281 68.296875 L 81.046875 31.167969 L 79.777344 29.898438 L 79.84375 68.296875 C 79.851562 69.988281 79.695312 71.664062 79.367188 73.320312 C 79.042969 74.980469 78.558594 76.59375 77.914062 78.152344 C 77.269531 79.714844 76.476562 81.199219 75.539062 82.601562 C 74.597656 84.007812 73.53125 85.304688 72.332031 86.496094 Z M 70.078125 84.242188 C 69.035156 85.292969 67.898438 86.230469 66.667969 87.054688 C 65.4375 87.878906 64.140625 88.574219 62.769531 89.136719 C 61.402344 89.703125 59.992188 90.128906 58.539062 90.414062 C 57.082031 90.703125 55.613281 90.84375 54.132812 90.835938 L 54.132812 92.105469 C 54.914062 92.105469 55.691406 92.070312 56.46875 91.992188 C 57.246094 91.917969 58.019531 91.804688 58.785156 91.65625 C 59.550781 91.503906 60.308594 91.316406 61.054688 91.089844 C 61.800781 90.863281 62.535156 90.601562 63.257812 90.304688 C 63.980469 90.007812 64.683594 89.675781 65.371094 89.308594 C 66.058594 88.941406 66.730469 88.542969 67.378906 88.109375 C 68.027344 87.675781 68.652344 87.210938 69.253906 86.71875 C 69.859375 86.222656 70.433594 85.699219 70.988281 85.148438 C 71.539062 84.597656 72.0625 84.019531 72.554688 83.417969 C 73.050781 82.8125 73.511719 82.1875 73.945312 81.539062 C 74.378906 80.890625 74.777344 80.222656 75.144531 79.535156 C 75.511719 78.847656 75.84375 78.140625 76.144531 77.417969 C 76.441406 76.699219 76.703125 75.964844 76.929688 75.21875 C 77.152344 74.46875 77.339844 73.714844 77.492188 72.949219 C 77.644531 72.183594 77.757812 71.410156 77.832031 70.632812 C 77.90625 69.855469 77.945312 69.078125 77.941406 68.296875 L 77.871094 27.992188 L 76.597656 26.71875 L 76.675781 68.292969 C 76.679688 69.777344 76.539062 71.246094 76.253906 72.699219 C 75.96875 74.15625 75.542969 75.566406 74.976562 76.9375 C 74.414062 78.304688 73.71875 79.605469 72.894531 80.835938 C 72.070312 82.066406 71.132812 83.203125 70.082031 84.246094 Z M 67.824219 81.988281 C 66.925781 82.890625 65.949219 83.695312 64.890625 84.402344 C 63.832031 85.109375 62.714844 85.707031 61.539062 86.191406 C 60.359375 86.675781 59.144531 87.042969 57.894531 87.285156 C 56.644531 87.53125 55.382812 87.648438 54.105469 87.640625 L 54.121094 88.925781 C 54.800781 88.925781 55.476562 88.894531 56.148438 88.828125 C 56.824219 88.761719 57.492188 88.664062 58.15625 88.535156 C 58.820312 88.402344 59.476562 88.242188 60.125 88.046875 C 60.769531 87.847656 61.40625 87.621094 62.03125 87.363281 C 62.65625 87.105469 63.269531 86.820312 63.863281 86.5 C 64.460938 86.183594 65.042969 85.835938 65.605469 85.460938 C 66.167969 85.085938 66.707031 84.683594 67.230469 84.253906 C 67.753906 83.824219 68.253906 83.371094 68.730469 82.894531 C 69.210938 82.417969 69.664062 81.917969 70.09375 81.394531 C 70.519531 80.871094 70.921875 80.328125 71.296875 79.765625 C 71.671875 79.203125 72.019531 78.625 72.339844 78.027344 C 72.65625 77.429688 72.945312 76.820312 73.203125 76.195312 C 73.460938 75.570312 73.6875 74.933594 73.882812 74.285156 C 74.078125 73.636719 74.242188 72.980469 74.371094 72.316406 C 74.503906 71.652344 74.601562 70.984375 74.667969 70.3125 C 74.730469 69.636719 74.761719 68.960938 74.761719 68.285156 L 74.6875 24.808594 L 73.414062 23.539062 L 73.492188 68.292969 C 73.5 69.566406 73.378906 70.828125 73.132812 72.078125 C 72.890625 73.328125 72.523438 74.539062 72.039062 75.714844 C 71.550781 76.890625 70.957031 78.007812 70.246094 79.066406 C 69.539062 80.125 68.734375 81.101562 67.832031 81.996094 Z M 54.117188 84.480469 L 54.117188 85.75 C 54.691406 85.75 55.261719 85.722656 55.832031 85.667969 C 56.402344 85.609375 56.96875 85.527344 57.527344 85.414062 C 58.089844 85.304688 58.644531 85.164062 59.191406 85 C 59.742188 84.835938 60.277344 84.640625 60.808594 84.421875 C 61.335938 84.203125 61.851562 83.960938 62.355469 83.691406 C 62.863281 83.421875 63.351562 83.128906 63.828125 82.8125 C 64.300781 82.492188 64.761719 82.152344 65.203125 81.789062 C 65.644531 81.429688 66.070312 81.042969 66.472656 80.640625 C 66.878906 80.234375 67.261719 79.8125 67.625 79.371094 C 67.984375 78.929688 68.328125 78.46875 68.644531 77.992188 C 68.960938 77.519531 69.253906 77.027344 69.523438 76.523438 C 69.792969 76.019531 70.039062 75.503906 70.257812 74.972656 C 70.476562 74.445312 70.667969 73.90625 70.832031 73.359375 C 71 72.8125 71.136719 72.257812 71.25 71.695312 C 71.359375 71.132812 71.445312 70.570312 71.5 70 C 71.554688 69.429688 71.582031 68.859375 71.582031 68.285156 L 71.5 21.636719 L 70.230469 20.367188 L 70.320312 68.277344 C 70.320312 68.808594 70.292969 69.339844 70.242188 69.867188 C 70.191406 70.398438 70.113281 70.921875 70.011719 71.445312 C 69.90625 71.964844 69.777344 72.480469 69.625 72.988281 C 69.472656 73.496094 69.292969 73.996094 69.089844 74.484375 C 68.886719 74.976562 68.664062 75.457031 68.414062 75.925781 C 68.164062 76.390625 67.890625 76.847656 67.59375 77.289062 C 67.300781 77.730469 66.984375 78.15625 66.648438 78.566406 C 66.3125 78.976562 65.957031 79.367188 65.582031 79.742188 C 65.207031 80.117188 64.8125 80.476562 64.402344 80.8125 C 63.992188 81.148438 63.566406 81.464844 63.125 81.757812 C 62.683594 82.050781 62.230469 82.324219 61.761719 82.574219 C 61.292969 82.824219 60.8125 83.050781 60.324219 83.253906 C 59.832031 83.457031 59.332031 83.632812 58.824219 83.789062 C 58.316406 83.941406 57.800781 84.070312 57.28125 84.171875 C 56.761719 84.277344 56.234375 84.351562 55.707031 84.40625 C 55.175781 84.457031 54.648438 84.480469 54.117188 84.480469 Z M 54.117188 84.480469 " clip-rule="nonzero"/></clipPath><linearGradient x1="-50.374109" gradientTransform="matrix(-0.118602, -0.118602, 0.118189, -0.118189, 59.741191, 100.882509)" y1="-13.398619" x2="370.391052" gradientUnits="userSpaceOnUse" y2="498.672333" id="575a3651b2"><stop stop-opacity="1" stop-color="rgb(0%, 18.798828%, 100%)" offset="0"/><stop stop-opacity="1" stop-color="rgb(0%, 18.798828%, 100%)" offset="0.25"/><stop stop-opacity="1" stop-color="rgb(0%, 18.798828%, 100%)" offset="0.3125"/><stop stop-opacity="1" stop-color="rgb(0%, 18.798828%, 100%)" offset="0.320312"/><stop stop-opacity="1" stop-color="rgb(0%, 19.126892%, 100%)" offset="0.324219"/><stop stop-opacity="1" stop-color="rgb(0%, 19.456482%, 100%)" offset="0.328125"/><stop stop-opacity="1" stop-color="rgb(0%, 20.007324%, 100%)" offset="0.332031"/><stop stop-opacity="1" stop-color="rgb(0%, 20.559692%, 100%)" offset="0.335938"/><stop stop-opacity="1" stop-color="rgb(0%, 21.110535%, 100%)" offset="0.339844"/><stop stop-opacity="1" stop-color="rgb(0%, 21.661377%, 100%)" offset="0.34375"/><stop stop-opacity="1" stop-color="rgb(0%, 22.212219%, 100%)" offset="0.347656"/><stop stop-opacity="1" stop-color="rgb(0%, 22.764587%, 100%)" offset="0.351563"/><stop stop-opacity="1" stop-color="rgb(0%, 23.31543%, 100%)" offset="0.355469"/><stop stop-opacity="1" stop-color="rgb(0%, 23.866272%, 100%)" offset="0.359375"/><stop stop-opacity="1" stop-color="rgb(0%, 24.417114%, 100%)" offset="0.363281"/><stop stop-opacity="1" stop-color="rgb(0%, 24.969482%, 100%)" offset="0.367188"/><stop stop-opacity="1" stop-color="rgb(0%, 25.520325%, 100%)" offset="0.371094"/><stop stop-opacity="1" stop-color="rgb(0%, 26.072693%, 100%)" offset="0.375"/><stop stop-opacity="1" stop-color="rgb(0%, 26.623535%, 100%)" offset="0.378906"/><stop stop-opacity="1" stop-color="rgb(0%, 27.174377%, 100%)" offset="0.382812"/><stop stop-opacity="1" stop-color="rgb(0%, 27.72522%, 100%)" offset="0.386719"/><stop stop-opacity="1" stop-color="rgb(0%, 28.277588%, 100%)" offset="0.390625"/><stop stop-opacity="1" stop-color="rgb(0%, 28.82843%, 100%)" offset="0.394531"/><stop stop-opacity="1" stop-color="rgb(0%, 29.379272%, 100%)" offset="0.398438"/><stop stop-opacity="1" stop-color="rgb(0%, 29.930115%, 100%)" offset="0.402344"/><stop stop-opacity="1" stop-color="rgb(0%, 30.482483%, 100%)" offset="0.40625"/><stop stop-opacity="1" stop-color="rgb(0%, 31.033325%, 100%)" offset="0.410156"/><stop stop-opacity="1" stop-color="rgb(0%, 31.585693%, 100%)" offset="0.414063"/><stop stop-opacity="1" stop-color="rgb(0%, 32.136536%, 100%)" offset="0.417969"/><stop stop-opacity="1" stop-color="rgb(0%, 32.687378%, 100%)" offset="0.421875"/><stop stop-opacity="1" stop-color="rgb(0%, 33.23822%, 100%)" offset="0.425781"/><stop stop-opacity="1" stop-color="rgb(0%, 33.790588%, 100%)" offset="0.429688"/><stop stop-opacity="1" stop-color="rgb(0%, 34.341431%, 100%)" offset="0.433594"/><stop stop-opacity="1" stop-color="rgb(0%, 34.892273%, 100%)" offset="0.4375"/><stop stop-opacity="1" stop-color="rgb(0%, 35.443115%, 100%)" offset="0.441406"/><stop stop-opacity="1" stop-color="rgb(0%, 35.995483%, 100%)" offset="0.445312"/><stop stop-opacity="1" stop-color="rgb(0%, 36.546326%, 100%)" offset="0.449219"/><stop stop-opacity="1" stop-color="rgb(0%, 37.098694%, 100%)" offset="0.453125"/><stop stop-opacity="1" stop-color="rgb(0%, 37.649536%, 100%)" offset="0.457031"/><stop stop-opacity="1" stop-color="rgb(0%, 38.200378%, 100%)" offset="0.460938"/><stop stop-opacity="1" stop-color="rgb(0%, 38.751221%, 100%)" offset="0.464844"/><stop stop-opacity="1" stop-color="rgb(0%, 39.303589%, 100%)" offset="0.46875"/><stop stop-opacity="1" stop-color="rgb(0%, 39.854431%, 100%)" offset="0.472656"/><stop stop-opacity="1" stop-color="rgb(0%, 40.405273%, 100%)" offset="0.476562"/><stop stop-opacity="1" stop-color="rgb(0%, 40.956116%, 100%)" offset="0.480469"/><stop stop-opacity="1" stop-color="rgb(0%, 41.508484%, 100%)" offset="0.484375"/><stop stop-opacity="1" stop-color="rgb(0%, 42.059326%, 100%)" offset="0.488281"/><stop stop-opacity="1" stop-color="rgb(0%, 42.611694%, 100%)" offset="0.492188"/><stop stop-opacity="1" stop-color="rgb(0%, 43.162537%, 100%)" offset="0.496094"/><stop stop-opacity="1" stop-color="rgb(0%, 43.713379%, 100%)" offset="0.5"/><stop stop-opacity="1" stop-color="rgb(0%, 44.264221%, 100%)" offset="0.503906"/><stop stop-opacity="1" stop-color="rgb(0%, 44.816589%, 100%)" offset="0.507812"/><stop stop-opacity="1" stop-color="rgb(0%, 45.367432%, 100%)" offset="0.511719"/><stop stop-opacity="1" stop-color="rgb(0%, 45.918274%, 100%)" offset="0.515625"/><stop stop-opacity="1" stop-color="rgb(0%, 46.469116%, 100%)" offset="0.519531"/><stop stop-opacity="1" stop-color="rgb(0%, 47.021484%, 100%)" offset="0.523438"/><stop stop-opacity="1" stop-color="rgb(0%, 47.572327%, 100%)" offset="0.527344"/><stop stop-opacity="1" stop-color="rgb(0%, 48.124695%, 100%)" offset="0.53125"/><stop stop-opacity="1" stop-color="rgb(0%, 48.675537%, 100%)" offset="0.535156"/><stop stop-opacity="1" stop-color="rgb(0%, 49.226379%, 100%)" offset="0.539062"/><stop stop-opacity="1" stop-color="rgb(0%, 49.777222%, 100%)" offset="0.542969"/><stop stop-opacity="1" stop-color="rgb(0%, 50.32959%, 100%)" offset="0.546875"/><stop stop-opacity="1" stop-color="rgb(0%, 50.880432%, 100%)" offset="0.550781"/><stop stop-opacity="1" stop-color="rgb(0%, 51.4328%, 100%)" offset="0.554688"/><stop stop-opacity="1" stop-color="rgb(0%, 51.983643%, 100%)" offset="0.558594"/><stop stop-opacity="1" stop-color="rgb(0%, 52.534485%, 100%)" offset="0.5625"/><stop stop-opacity="1" stop-color="rgb(0%, 53.085327%, 100%)" offset="0.566406"/><stop stop-opacity="1" stop-color="rgb(0%, 53.637695%, 100%)" offset="0.570313"/><stop stop-opacity="1" stop-color="rgb(0%, 54.188538%, 100%)" offset="0.574219"/><stop stop-opacity="1" stop-color="rgb(0%, 54.73938%, 100%)" offset="0.578125"/><stop stop-opacity="1" stop-color="rgb(0%, 55.290222%, 100%)" offset="0.582031"/><stop stop-opacity="1" stop-color="rgb(0%, 55.84259%, 100%)" offset="0.585938"/><stop stop-opacity="1" stop-color="rgb(0%, 56.393433%, 100%)" offset="0.589844"/><stop stop-opacity="1" stop-color="rgb(0%, 56.945801%, 100%)" offset="0.59375"/><stop stop-opacity="1" stop-color="rgb(0%, 57.496643%, 100%)" offset="0.597656"/><stop stop-opacity="1" stop-color="rgb(0%, 58.047485%, 100%)" offset="0.601562"/><stop stop-opacity="1" stop-color="rgb(0%, 58.598328%, 100%)" offset="0.605469"/><stop stop-opacity="1" stop-color="rgb(0%, 59.150696%, 100%)" offset="0.609375"/><stop stop-opacity="1" stop-color="rgb(0%, 59.701538%, 100%)" offset="0.613281"/><stop stop-opacity="1" stop-color="rgb(0%, 60.25238%, 100%)" offset="0.617188"/><stop stop-opacity="1" stop-color="rgb(0%, 60.803223%, 100%)" offset="0.621094"/><stop stop-opacity="1" stop-color="rgb(0%, 61.355591%, 100%)" offset="0.625"/><stop stop-opacity="1" stop-color="rgb(0%, 61.906433%, 100%)" offset="0.628906"/><stop stop-opacity="1" stop-color="rgb(0%, 62.458801%, 100%)" offset="0.632813"/><stop stop-opacity="1" stop-color="rgb(0%, 63.009644%, 100%)" offset="0.636719"/><stop stop-opacity="1" stop-color="rgb(0%, 63.560486%, 100%)" offset="0.640625"/><stop stop-opacity="1" stop-color="rgb(0%, 64.111328%, 100%)" offset="0.644531"/><stop stop-opacity="1" stop-color="rgb(0%, 64.663696%, 100%)" offset="0.648438"/><stop stop-opacity="1" stop-color="rgb(0%, 65.214539%, 100%)" offset="0.652344"/><stop stop-opacity="1" stop-color="rgb(0%, 65.765381%, 100%)" offset="0.65625"/><stop stop-opacity="1" stop-color="rgb(0%, 66.316223%, 100%)" offset="0.660156"/><stop stop-opacity="1" stop-color="rgb(0%, 66.868591%, 100%)" offset="0.664062"/><stop stop-opacity="1" stop-color="rgb(0%, 67.419434%, 100%)" offset="0.667969"/><stop stop-opacity="1" stop-color="rgb(0%, 67.971802%, 100%)" offset="0.671875"/><stop stop-opacity="1" stop-color="rgb(0%, 68.522644%, 100%)" offset="0.675781"/><stop stop-opacity="1" stop-color="rgb(0%, 69.073486%, 100%)" offset="0.679688"/><stop stop-opacity="1" stop-color="rgb(0%, 69.624329%, 100%)" offset="0.683594"/><stop stop-opacity="1" stop-color="rgb(0%, 70.176697%, 100%)" offset="0.6875"/><stop stop-opacity="1" stop-color="rgb(0%, 70.727539%, 100%)" offset="0.691406"/><stop stop-opacity="1" stop-color="rgb(0%, 71.278381%, 100%)" offset="0.695312"/><stop stop-opacity="1" stop-color="rgb(0%, 71.829224%, 100%)" offset="0.699219"/><stop stop-opacity="1" stop-color="rgb(0%, 72.381592%, 100%)" offset="0.703125"/><stop stop-opacity="1" stop-color="rgb(0%, 72.932434%, 100%)" offset="0.707031"/><stop stop-opacity="1" stop-color="rgb(0%, 73.484802%, 100%)" offset="0.710938"/><stop stop-opacity="1" stop-color="rgb(0%, 74.035645%, 100%)" offset="0.714844"/><stop stop-opacity="1" stop-color="rgb(0%, 74.586487%, 100%)" offset="0.71875"/><stop stop-opacity="1" stop-color="rgb(0%, 75.137329%, 100%)" offset="0.722656"/><stop stop-opacity="1" stop-color="rgb(0%, 75.689697%, 100%)" offset="0.726563"/><stop stop-opacity="1" stop-color="rgb(0%, 75.894165%, 100%)" offset="0.730469"/><stop stop-opacity="1" stop-color="rgb(0%, 76.098633%, 100%)" offset="0.734375"/><stop stop-opacity="1" stop-color="rgb(0%, 76.098633%, 100%)" offset="0.75"/><stop stop-opacity="1" stop-color="rgb(0%, 76.098633%, 100%)" offset="1"/></linearGradient></defs><g clip-path="url(#1a988635f6)"><g clip-path="url(#84984dd33c)"><g clip-path="url(#0b82c671f1)"><g clip-path="url(#8b04a5bcbf)"><path fill="url(#99d2f11600)" d="M 27.050781 41.085938 L 27.164062 95.296875 L 61.515625 95.367188 L 61.402344 41.15625 Z M 27.050781 41.085938 " fill-rule="nonzero"/></g></g></g></g><g clip-path="url(#a8f690c569)"><g clip-path="url(#30a455a65d)"><g clip-path="url(#e2c8a0c421)"><g clip-path="url(#30cb01d09a)"><path fill="url(#170f16e48d)" d="M 79.824219 41.144531 L 79.800781 61.574219 L 108.5625 61.542969 L 108.585938 41.113281 Z M 79.824219 41.144531 " fill-rule="nonzero"/></g></g></g></g><g clip-path="url(#3db069b2cf)"><g clip-path="url(#e234841688)"><g clip-path="url(#0e296dcdaf)"><g clip-path="url(#87dd62e80b)"><path fill="url(#575a3651b2)" d="M 67.605469 108.785156 L 123.34375 53.046875 L 67.605469 -2.695312 L 11.863281 53.046875 Z M 67.605469 108.785156 " fill-rule="nonzero"/></g></g></g></g><g fill="#ffffff" fill-opacity="1"><g transform="translate(65.749703, 79.529288)"><g><path d="M 12.835938 0.570312 C 14.335938 0.570312 16.300781 0.308594 17.648438 -0.15625 L 17.648438 -4.449219 C 16.714844 -4.191406 15.472656 -4.035156 14.542969 -4.035156 C 12.367188 -4.035156 10.972656 -5.640625 10.972656 -8.023438 L 10.917969 -21.941406 L 17.285156 -21.941406 L 17.285156 -26.289062 L 10.917969 -26.289062 L 10.972656 -34.363281 L 6.210938 -34.363281 L 5.277344 -26.289062 L 1.035156 -26.289062 L 1.035156 -21.941406 L 5.070312 -21.941406 L 5.070312 -7.816406 C 5.070312 -2.792969 8.125 0.570312 12.835938 0.570312 Z M 12.835938 0.570312 "/></g></g></g><g fill="#ffffff" fill-opacity="1"><g transform="translate(84.792778, 79.529288)"><g><path d="M 13.921875 0.929688 C 21.011719 0.929688 25.824219 -2.328125 25.824219 -7.609375 C 25.824219 -13.871094 20.027344 -14.800781 15.113281 -15.472656 C 11.230469 -15.992188 7.660156 -16.355469 7.660156 -19.667969 C 7.660156 -21.890625 9.988281 -23.445312 13.300781 -23.445312 C 17.078125 -23.445312 19.613281 -21.476562 19.613281 -18.476562 L 24.894531 -18.476562 C 24.894531 -23.804688 20.078125 -27.222656 13.300781 -27.222656 C 6.675781 -27.222656 2.226562 -24.011719 2.226562 -19.097656 C 2.226562 -12.523438 8.230469 -11.851562 12.9375 -11.28125 C 16.613281 -10.816406 19.976562 -10.503906 19.976562 -6.933594 C 19.976562 -4.449219 17.441406 -2.847656 13.972656 -2.847656 C 9.78125 -2.847656 6.933594 -5.125 6.882812 -8.382812 L 1.8125 -8.382812 C 1.8125 -2.792969 6.625 0.929688 13.921875 0.929688 Z M 13.921875 0.929688 "/></g></g></g><g fill="#ffffff" fill-opacity="1"><g transform="translate(112.477676, 79.529288)"><g><path d="M 6.519531 -30.535156 C 8.644531 -30.535156 10.195312 -31.984375 10.195312 -34.054688 C 10.195312 -36.125 8.644531 -37.574219 6.519531 -37.574219 C 4.449219 -37.574219 2.898438 -36.125 2.898438 -34.054688 C 2.898438 -31.984375 4.449219 -30.535156 6.519531 -30.535156 Z M 3.570312 0 L 9.472656 0 L 9.472656 -26.289062 L 3.570312 -26.289062 Z M 3.570312 0 "/></g></g></g><g fill="#a100ed" fill-opacity="1"><g transform="translate(125.517935, 79.529288)"><g><path d="M 3.363281 0 L 9.265625 0 L 9.265625 -38.195312 L 3.363281 -38.195312 Z M 3.363281 0 "/></g></g></g><g fill="#a100ed" fill-opacity="1"><g transform="translate(138.144316, 79.529288)"><g><path d="M 10.710938 0 L 19.40625 0 L 29.292969 -26.289062 L 22.976562 -26.289062 L 15.265625 -4.917969 L 14.851562 -4.917969 L 7.140625 -26.289062 L 0.828125 -26.289062 Z M 10.710938 0 "/></g></g></g><g fill="#a100ed" fill-opacity="1"><g transform="translate(168.313087, 79.529288)"><g><path d="M 10.351562 0.828125 C 14.4375 0.828125 18.113281 -0.828125 19.820312 -4.089844 L 20.183594 -4.089844 L 20.183594 0 L 26.082031 0 L 26.082031 -17.183594 C 26.082031 -22.976562 21.375 -26.910156 14.59375 -26.910156 C 7.660156 -26.910156 2.949219 -23.082031 2.949219 -17.542969 L 8.644531 -17.542969 C 8.644531 -20.753906 11.074219 -22.976562 14.542969 -22.976562 C 17.90625 -22.976562 20.183594 -20.648438 20.183594 -17.390625 L 20.183594 -15.992188 L 13.664062 -14.957031 C 5.382812 -13.664062 1.707031 -10.917969 1.707031 -6.210938 C 1.707031 -1.757812 5.175781 0.828125 10.351562 0.828125 Z M 12.421875 -3 C 9.265625 -3 7.402344 -4.398438 7.402344 -6.675781 C 7.402344 -9.109375 9.265625 -10.710938 14.023438 -11.539062 L 20.183594 -12.574219 L 20.183594 -10.296875 C 20.183594 -6.105469 17.078125 -3 12.421875 -3 Z M 12.421875 -3 "/></g></g></g><g fill="#ff00ff" fill-opacity="1"><g transform="translate(85.184755, 93.548041)"><g><path d="M 3 0.171875 C 3.925781 0.171875 4.617188 -0.28125 4.996094 -1.003906 L 5.082031 -1.003906 L 5.082031 0 L 6.300781 0 L 6.300781 -7.960938 L 5.082031 -7.960938 L 5.082031 -4.476562 L 4.996094 -4.476562 C 4.617188 -5.210938 3.925781 -5.652344 2.988281 -5.652344 C 1.457031 -5.652344 0.378906 -4.476562 0.378906 -2.742188 C 0.378906 -0.992188 1.445312 0.171875 3 0.171875 Z M 3.367188 -0.875 C 2.339844 -0.875 1.609375 -1.660156 1.609375 -2.742188 C 1.609375 -3.820312 2.339844 -4.605469 3.367188 -4.605469 C 4.378906 -4.605469 5.125 -3.820312 5.125 -2.742188 C 5.125 -1.660156 4.378906 -0.875 3.367188 -0.875 Z M 3.367188 -0.875 "/></g></g></g><g fill="#ff00ff" fill-opacity="1"><g transform="translate(94.482045, 93.548041)"><g><path d="M 3.410156 0.171875 C 4.726562 0.171875 5.871094 -0.539062 6.171875 -1.597656 L 5.09375 -1.769531 C 4.867188 -1.15625 4.207031 -0.710938 3.464844 -0.710938 C 2.449219 -0.710938 1.726562 -1.390625 1.640625 -2.40625 L 6.34375 -2.40625 L 6.355469 -2.742188 C 6.355469 -4.476562 5.167969 -5.652344 3.421875 -5.652344 C 1.640625 -5.652344 0.386719 -4.488281 0.386719 -2.75 C 0.386719 -1.003906 1.628906 0.171875 3.410156 0.171875 Z M 1.628906 -3.117188 C 1.726562 -4.101562 2.417969 -4.78125 3.398438 -4.78125 C 4.347656 -4.78125 5.050781 -4.066406 5.113281 -3.117188 Z M 1.628906 -3.117188 "/></g></g></g><g fill="#ff00ff" fill-opacity="1"><g transform="translate(103.498971, 93.548041)"><g><path d="M 2.234375 0 L 4.046875 0 L 6.105469 -5.480469 L 4.789062 -5.480469 L 3.183594 -1.023438 L 3.097656 -1.023438 L 1.488281 -5.480469 L 0.171875 -5.480469 Z M 2.234375 0 "/></g></g></g><g fill="#ff00ff" fill-opacity="1"><g transform="translate(112.073798, 93.548041)"><g><path d="M 3.410156 0.171875 C 4.726562 0.171875 5.871094 -0.539062 6.171875 -1.597656 L 5.09375 -1.769531 C 4.867188 -1.15625 4.207031 -0.710938 3.464844 -0.710938 C 2.449219 -0.710938 1.726562 -1.390625 1.640625 -2.40625 L 6.34375 -2.40625 L 6.355469 -2.742188 C 6.355469 -4.476562 5.167969 -5.652344 3.421875 -5.652344 C 1.640625 -5.652344 0.386719 -4.488281 0.386719 -2.75 C 0.386719 -1.003906 1.628906 0.171875 3.410156 0.171875 Z M 1.628906 -3.117188 C 1.726562 -4.101562 2.417969 -4.78125 3.398438 -4.78125 C 4.347656 -4.78125 5.050781 -4.066406 5.113281 -3.117188 Z M 1.628906 -3.117188 "/></g></g></g><g fill="#ff00ff" fill-opacity="1"><g transform="translate(121.090724, 93.548041)"><g><path d="M 0.703125 0 L 1.929688 0 L 1.929688 -7.960938 L 0.703125 -7.960938 Z M 0.703125 0 "/></g></g></g><g fill="#ff00ff" fill-opacity="1"><g transform="translate(126.010097, 93.548041)"><g><path d="M 3.355469 0.171875 C 5.136719 0.171875 6.34375 -0.980469 6.34375 -2.742188 C 6.34375 -4.5 5.136719 -5.652344 3.355469 -5.652344 C 1.574219 -5.652344 0.378906 -4.511719 0.378906 -2.742188 C 0.378906 -0.980469 1.585938 0.171875 3.355469 0.171875 Z M 3.355469 -0.875 C 2.332031 -0.875 1.597656 -1.652344 1.597656 -2.742188 C 1.597656 -3.832031 2.332031 -4.605469 3.355469 -4.605469 C 4.390625 -4.605469 5.125 -3.832031 5.125 -2.742188 C 5.125 -1.652344 4.390625 -0.875 3.355469 -0.875 Z M 3.355469 -0.875 "/></g></g></g><g fill="#ff00ff" fill-opacity="1"><g transform="translate(135.005462, 93.548041)"><g><path d="M 0.710938 2.480469 L 1.929688 2.480469 L 1.929688 -1.003906 L 2.027344 -1.003906 C 2.40625 -0.269531 3.097656 0.171875 4.023438 0.171875 C 5.558594 0.171875 6.636719 -1.003906 6.636719 -2.742188 C 6.636719 -4.488281 5.566406 -5.652344 4.023438 -5.652344 C 3.085938 -5.652344 2.40625 -5.210938 2.027344 -4.476562 L 1.929688 -4.476562 L 1.929688 -5.480469 L 0.710938 -5.480469 Z M 3.648438 -0.875 C 2.632812 -0.875 1.886719 -1.660156 1.886719 -2.742188 C 1.886719 -3.820312 2.632812 -4.605469 3.648438 -4.605469 C 4.671875 -4.605469 5.40625 -3.820312 5.40625 -2.742188 C 5.40625 -1.660156 4.671875 -0.875 3.648438 -0.875 Z M 3.648438 -0.875 "/></g></g></g><g fill="#ff00ff" fill-opacity="1"><g transform="translate(144.302752, 93.548041)"><g><path d="M 0.710938 0 L 1.929688 0 L 1.929688 -3.203125 C 1.929688 -4.058594 2.4375 -4.605469 3.203125 -4.605469 C 3.925781 -4.605469 4.414062 -4.058594 4.414062 -3.203125 L 4.414062 0 L 5.644531 0 L 5.644531 -3.203125 C 5.644531 -4.046875 6.148438 -4.605469 6.925781 -4.605469 C 7.683594 -4.597656 8.15625 -4.023438 8.15625 -3.203125 L 8.15625 0 L 9.386719 0 L 9.386719 -3.453125 C 9.386719 -4.769531 8.566406 -5.652344 7.371094 -5.652344 C 6.453125 -5.652344 5.816406 -5.179688 5.558594 -4.421875 L 5.480469 -4.421875 C 5.242188 -5.167969 4.5625 -5.652344 3.710938 -5.652344 C 2.933594 -5.652344 2.320312 -5.234375 2.019531 -4.585938 L 1.929688 -4.585938 L 1.929688 -5.480469 L 0.710938 -5.480469 Z M 0.710938 0 "/></g></g></g><g fill="#ff00ff" fill-opacity="1"><g transform="translate(156.586943, 93.548041)"><g><path d="M 3.410156 0.171875 C 4.726562 0.171875 5.871094 -0.539062 6.171875 -1.597656 L 5.09375 -1.769531 C 4.867188 -1.15625 4.207031 -0.710938 3.464844 -0.710938 C 2.449219 -0.710938 1.726562 -1.390625 1.640625 -2.40625 L 6.34375 -2.40625 L 6.355469 -2.742188 C 6.355469 -4.476562 5.167969 -5.652344 3.421875 -5.652344 C 1.640625 -5.652344 0.386719 -4.488281 0.386719 -2.75 C 0.386719 -1.003906 1.628906 0.171875 3.410156 0.171875 Z M 1.628906 -3.117188 C 1.726562 -4.101562 2.417969 -4.78125 3.398438 -4.78125 C 4.347656 -4.78125 5.050781 -4.066406 5.113281 -3.117188 Z M 1.628906 -3.117188 "/></g></g></g><g fill="#ff00ff" fill-opacity="1"><g transform="translate(165.603869, 93.548041)"><g><path d="M 0.710938 0 L 1.929688 0 L 1.929688 -3.152344 C 1.929688 -4.003906 2.558594 -4.605469 3.355469 -4.605469 C 4.164062 -4.605469 4.660156 -3.980469 4.660156 -3.097656 L 4.660156 0 L 5.890625 0 L 5.890625 -3.3125 C 5.890625 -4.660156 5.058594 -5.652344 3.808594 -5.652344 C 3.019531 -5.652344 2.40625 -5.253906 2.019531 -4.542969 L 1.929688 -4.542969 L 1.929688 -5.480469 L 0.710938 -5.480469 Z M 0.710938 0 "/></g></g></g><g fill="#ff00ff" fill-opacity="1"><g transform="translate(174.405136, 93.548041)"><g><path d="M 2.675781 0.117188 C 2.988281 0.117188 3.398438 0.0664062 3.679688 -0.03125 L 3.679688 -0.929688 C 3.484375 -0.875 3.226562 -0.839844 3.03125 -0.839844 C 2.578125 -0.839844 2.289062 -1.175781 2.289062 -1.671875 L 2.277344 -4.574219 L 3.605469 -4.574219 L 3.605469 -5.480469 L 2.277344 -5.480469 L 2.289062 -7.164062 L 1.292969 -7.164062 L 1.101562 -5.480469 L 0.214844 -5.480469 L 0.214844 -4.574219 L 1.058594 -4.574219 L 1.058594 -1.628906 C 1.058594 -0.582031 1.695312 0.117188 2.675781 0.117188 Z M 2.675781 0.117188 "/></g></g></g><g fill="#00ffff" fill-opacity="1"><g transform="translate(84.779983, 93.548041)"><g><path d="M 3 0.171875 C 3.925781 0.171875 4.617188 -0.28125 4.996094 -1.003906 L 5.082031 -1.003906 L 5.082031 0 L 6.300781 0 L 6.300781 -7.960938 L 5.082031 -7.960938 L 5.082031 -4.476562 L 4.996094 -4.476562 C 4.617188 -5.210938 3.925781 -5.652344 2.988281 -5.652344 C 1.457031 -5.652344 0.378906 -4.476562 0.378906 -2.742188 C 0.378906 -0.992188 1.445312 0.171875 3 0.171875 Z M 3.367188 -0.875 C 2.339844 -0.875 1.609375 -1.660156 1.609375 -2.742188 C 1.609375 -3.820312 2.339844 -4.605469 3.367188 -4.605469 C 4.378906 -4.605469 5.125 -3.820312 5.125 -2.742188 C 5.125 -1.660156 4.378906 -0.875 3.367188 -0.875 Z M 3.367188 -0.875 "/></g></g></g><g fill="#00ffff" fill-opacity="1"><g transform="translate(94.077273, 93.548041)"><g><path d="M 3.410156 0.171875 C 4.726562 0.171875 5.871094 -0.539062 6.171875 -1.597656 L 5.09375 -1.769531 C 4.867188 -1.15625 4.207031 -0.710938 3.464844 -0.710938 C 2.449219 -0.710938 1.726562 -1.390625 1.640625 -2.40625 L 6.34375 -2.40625 L 6.355469 -2.742188 C 6.355469 -4.476562 5.167969 -5.652344 3.421875 -5.652344 C 1.640625 -5.652344 0.386719 -4.488281 0.386719 -2.75 C 0.386719 -1.003906 1.628906 0.171875 3.410156 0.171875 Z M 1.628906 -3.117188 C 1.726562 -4.101562 2.417969 -4.78125 3.398438 -4.78125 C 4.347656 -4.78125 5.050781 -4.066406 5.113281 -3.117188 Z M 1.628906 -3.117188 "/></g></g></g><g fill="#00ffff" fill-opacity="1"><g transform="translate(103.094199, 93.548041)"><g><path d="M 2.234375 0 L 4.046875 0 L 6.105469 -5.480469 L 4.789062 -5.480469 L 3.183594 -1.023438 L 3.097656 -1.023438 L 1.488281 -5.480469 L 0.171875 -5.480469 Z M 2.234375 0 "/></g></g></g><g fill="#00ffff" fill-opacity="1"><g transform="translate(111.669026, 93.548041)"><g><path d="M 3.410156 0.171875 C 4.726562 0.171875 5.871094 -0.539062 6.171875 -1.597656 L 5.09375 -1.769531 C 4.867188 -1.15625 4.207031 -0.710938 3.464844 -0.710938 C 2.449219 -0.710938 1.726562 -1.390625 1.640625 -2.40625 L 6.34375 -2.40625 L 6.355469 -2.742188 C 6.355469 -4.476562 5.167969 -5.652344 3.421875 -5.652344 C 1.640625 -5.652344 0.386719 -4.488281 0.386719 -2.75 C 0.386719 -1.003906 1.628906 0.171875 3.410156 0.171875 Z M 1.628906 -3.117188 C 1.726562 -4.101562 2.417969 -4.78125 3.398438 -4.78125 C 4.347656 -4.78125 5.050781 -4.066406 5.113281 -3.117188 Z M 1.628906 -3.117188 "/></g></g></g><g fill="#00ffff" fill-opacity="1"><g transform="translate(120.685952, 93.548041)"><g><path d="M 0.703125 0 L 1.929688 0 L 1.929688 -7.960938 L 0.703125 -7.960938 Z M 0.703125 0 "/></g></g></g><g fill="#00ffff" fill-opacity="1"><g transform="translate(125.605325, 93.548041)"><g><path d="M 3.355469 0.171875 C 5.136719 0.171875 6.34375 -0.980469 6.34375 -2.742188 C 6.34375 -4.5 5.136719 -5.652344 3.355469 -5.652344 C 1.574219 -5.652344 0.378906 -4.511719 0.378906 -2.742188 C 0.378906 -0.980469 1.585938 0.171875 3.355469 0.171875 Z M 3.355469 -0.875 C 2.332031 -0.875 1.597656 -1.652344 1.597656 -2.742188 C 1.597656 -3.832031 2.332031 -4.605469 3.355469 -4.605469 C 4.390625 -4.605469 5.125 -3.832031 5.125 -2.742188 C 5.125 -1.652344 4.390625 -0.875 3.355469 -0.875 Z M 3.355469 -0.875 "/></g></g></g><g fill="#00ffff" fill-opacity="1"><g transform="translate(134.60069, 93.548041)"><g><path d="M 0.710938 2.480469 L 1.929688 2.480469 L 1.929688 -1.003906 L 2.027344 -1.003906 C 2.40625 -0.269531 3.097656 0.171875 4.023438 0.171875 C 5.558594 0.171875 6.636719 -1.003906 6.636719 -2.742188 C 6.636719 -4.488281 5.566406 -5.652344 4.023438 -5.652344 C 3.085938 -5.652344 2.40625 -5.210938 2.027344 -4.476562 L 1.929688 -4.476562 L 1.929688 -5.480469 L 0.710938 -5.480469 Z M 3.648438 -0.875 C 2.632812 -0.875 1.886719 -1.660156 1.886719 -2.742188 C 1.886719 -3.820312 2.632812 -4.605469 3.648438 -4.605469 C 4.671875 -4.605469 5.40625 -3.820312 5.40625 -2.742188 C 5.40625 -1.660156 4.671875 -0.875 3.648438 -0.875 Z M 3.648438 -0.875 "/></g></g></g><g fill="#00ffff" fill-opacity="1"><g transform="translate(143.89798, 93.548041)"><g><path d="M 0.710938 0 L 1.929688 0 L 1.929688 -3.203125 C 1.929688 -4.058594 2.4375 -4.605469 3.203125 -4.605469 C 3.925781 -4.605469 4.414062 -4.058594 4.414062 -3.203125 L 4.414062 0 L 5.644531 0 L 5.644531 -3.203125 C 5.644531 -4.046875 6.148438 -4.605469 6.925781 -4.605469 C 7.683594 -4.597656 8.15625 -4.023438 8.15625 -3.203125 L 8.15625 0 L 9.386719 0 L 9.386719 -3.453125 C 9.386719 -4.769531 8.566406 -5.652344 7.371094 -5.652344 C 6.453125 -5.652344 5.816406 -5.179688 5.558594 -4.421875 L 5.480469 -4.421875 C 5.242188 -5.167969 4.5625 -5.652344 3.710938 -5.652344 C 2.933594 -5.652344 2.320312 -5.234375 2.019531 -4.585938 L 1.929688 -4.585938 L 1.929688 -5.480469 L 0.710938 -5.480469 Z M 0.710938 0 "/></g></g></g><g fill="#00ffff" fill-opacity="1"><g transform="translate(156.182171, 93.548041)"><g><path d="M 3.410156 0.171875 C 4.726562 0.171875 5.871094 -0.539062 6.171875 -1.597656 L 5.09375 -1.769531 C 4.867188 -1.15625 4.207031 -0.710938 3.464844 -0.710938 C 2.449219 -0.710938 1.726562 -1.390625 1.640625 -2.40625 L 6.34375 -2.40625 L 6.355469 -2.742188 C 6.355469 -4.476562 5.167969 -5.652344 3.421875 -5.652344 C 1.640625 -5.652344 0.386719 -4.488281 0.386719 -2.75 C 0.386719 -1.003906 1.628906 0.171875 3.410156 0.171875 Z M 1.628906 -3.117188 C 1.726562 -4.101562 2.417969 -4.78125 3.398438 -4.78125 C 4.347656 -4.78125 5.050781 -4.066406 5.113281 -3.117188 Z M 1.628906 -3.117188 "/></g></g></g><g fill="#00ffff" fill-opacity="1"><g transform="translate(165.199097, 93.548041)"><g><path d="M 0.710938 0 L 1.929688 0 L 1.929688 -3.152344 C 1.929688 -4.003906 2.558594 -4.605469 3.355469 -4.605469 C 4.164062 -4.605469 4.660156 -3.980469 4.660156 -3.097656 L 4.660156 0 L 5.890625 0 L 5.890625 -3.3125 C 5.890625 -4.660156 5.058594 -5.652344 3.808594 -5.652344 C 3.019531 -5.652344 2.40625 -5.253906 2.019531 -4.542969 L 1.929688 -4.542969 L 1.929688 -5.480469 L 0.710938 -5.480469 Z M 0.710938 0 "/></g></g></g><g fill="#00ffff" fill-opacity="1"><g transform="translate(174.000364, 93.548041)"><g><path d="M 2.675781 0.117188 C 2.988281 0.117188 3.398438 0.0664062 3.679688 -0.03125 L 3.679688 -0.929688 C 3.484375 -0.875 3.226562 -0.839844 3.03125 -0.839844 C 2.578125 -0.839844 2.289062 -1.175781 2.289062 -1.671875 L 2.277344 -4.574219 L 3.605469 -4.574219 L 3.605469 -5.480469 L 2.277344 -5.480469 L 2.289062 -7.164062 L 1.292969 -7.164062 L 1.101562 -5.480469 L 0.214844 -5.480469 L 0.214844 -4.574219 L 1.058594 -4.574219 L 1.058594 -1.628906 C 1.058594 -0.582031 1.695312 0.117188 2.675781 0.117188 Z M 2.675781 0.117188 "/></g></g></g><g fill="#00c2ff" fill-opacity="1"><g transform="translate(84.982369, 93.548041)"><g><path d="M 3 0.171875 C 3.925781 0.171875 4.617188 -0.28125 4.996094 -1.003906 L 5.082031 -1.003906 L 5.082031 0 L 6.300781 0 L 6.300781 -7.960938 L 5.082031 -7.960938 L 5.082031 -4.476562 L 4.996094 -4.476562 C 4.617188 -5.210938 3.925781 -5.652344 2.988281 -5.652344 C 1.457031 -5.652344 0.378906 -4.476562 0.378906 -2.742188 C 0.378906 -0.992188 1.445312 0.171875 3 0.171875 Z M 3.367188 -0.875 C 2.339844 -0.875 1.609375 -1.660156 1.609375 -2.742188 C 1.609375 -3.820312 2.339844 -4.605469 3.367188 -4.605469 C 4.378906 -4.605469 5.125 -3.820312 5.125 -2.742188 C 5.125 -1.660156 4.378906 -0.875 3.367188 -0.875 Z M 3.367188 -0.875 "/></g></g></g><g fill="#00c2ff" fill-opacity="1"><g transform="translate(94.279659, 93.548041)"><g><path d="M 3.410156 0.171875 C 4.726562 0.171875 5.871094 -0.539062 6.171875 -1.597656 L 5.09375 -1.769531 C 4.867188 -1.15625 4.207031 -0.710938 3.464844 -0.710938 C 2.449219 -0.710938 1.726562 -1.390625 1.640625 -2.40625 L 6.34375 -2.40625 L 6.355469 -2.742188 C 6.355469 -4.476562 5.167969 -5.652344 3.421875 -5.652344 C 1.640625 -5.652344 0.386719 -4.488281 0.386719 -2.75 C 0.386719 -1.003906 1.628906 0.171875 3.410156 0.171875 Z M 1.628906 -3.117188 C 1.726562 -4.101562 2.417969 -4.78125 3.398438 -4.78125 C 4.347656 -4.78125 5.050781 -4.066406 5.113281 -3.117188 Z M 1.628906 -3.117188 "/></g></g></g><g fill="#00c2ff" fill-opacity="1"><g transform="translate(103.296585, 93.548041)"><g><path d="M 2.234375 0 L 4.046875 0 L 6.105469 -5.480469 L 4.789062 -5.480469 L 3.183594 -1.023438 L 3.097656 -1.023438 L 1.488281 -5.480469 L 0.171875 -5.480469 Z M 2.234375 0 "/></g></g></g><g fill="#00c2ff" fill-opacity="1"><g transform="translate(111.871412, 93.548041)"><g><path d="M 3.410156 0.171875 C 4.726562 0.171875 5.871094 -0.539062 6.171875 -1.597656 L 5.09375 -1.769531 C 4.867188 -1.15625 4.207031 -0.710938 3.464844 -0.710938 C 2.449219 -0.710938 1.726562 -1.390625 1.640625 -2.40625 L 6.34375 -2.40625 L 6.355469 -2.742188 C 6.355469 -4.476562 5.167969 -5.652344 3.421875 -5.652344 C 1.640625 -5.652344 0.386719 -4.488281 0.386719 -2.75 C 0.386719 -1.003906 1.628906 0.171875 3.410156 0.171875 Z M 1.628906 -3.117188 C 1.726562 -4.101562 2.417969 -4.78125 3.398438 -4.78125 C 4.347656 -4.78125 5.050781 -4.066406 5.113281 -3.117188 Z M 1.628906 -3.117188 "/></g></g></g><g fill="#00c2ff" fill-opacity="1"><g transform="translate(120.888338, 93.548041)"><g><path d="M 0.703125 0 L 1.929688 0 L 1.929688 -7.960938 L 0.703125 -7.960938 Z M 0.703125 0 "/></g></g></g><g fill="#00c2ff" fill-opacity="1"><g transform="translate(125.807711, 93.548041)"><g><path d="M 3.355469 0.171875 C 5.136719 0.171875 6.34375 -0.980469 6.34375 -2.742188 C 6.34375 -4.5 5.136719 -5.652344 3.355469 -5.652344 C 1.574219 -5.652344 0.378906 -4.511719 0.378906 -2.742188 C 0.378906 -0.980469 1.585938 0.171875 3.355469 0.171875 Z M 3.355469 -0.875 C 2.332031 -0.875 1.597656 -1.652344 1.597656 -2.742188 C 1.597656 -3.832031 2.332031 -4.605469 3.355469 -4.605469 C 4.390625 -4.605469 5.125 -3.832031 5.125 -2.742188 C 5.125 -1.652344 4.390625 -0.875 3.355469 -0.875 Z M 3.355469 -0.875 "/></g></g></g><g fill="#00c2ff" fill-opacity="1"><g transform="translate(134.803076, 93.548041)"><g><path d="M 0.710938 2.480469 L 1.929688 2.480469 L 1.929688 -1.003906 L 2.027344 -1.003906 C 2.40625 -0.269531 3.097656 0.171875 4.023438 0.171875 C 5.558594 0.171875 6.636719 -1.003906 6.636719 -2.742188 C 6.636719 -4.488281 5.566406 -5.652344 4.023438 -5.652344 C 3.085938 -5.652344 2.40625 -5.210938 2.027344 -4.476562 L 1.929688 -4.476562 L 1.929688 -5.480469 L 0.710938 -5.480469 Z M 3.648438 -0.875 C 2.632812 -0.875 1.886719 -1.660156 1.886719 -2.742188 C 1.886719 -3.820312 2.632812 -4.605469 3.648438 -4.605469 C 4.671875 -4.605469 5.40625 -3.820312 5.40625 -2.742188 C 5.40625 -1.660156 4.671875 -0.875 3.648438 -0.875 Z M 3.648438 -0.875 "/></g></g></g><g fill="#00c2ff" fill-opacity="1"><g transform="translate(144.100366, 93.548041)"><g><path d="M 0.710938 0 L 1.929688 0 L 1.929688 -3.203125 C 1.929688 -4.058594 2.4375 -4.605469 3.203125 -4.605469 C 3.925781 -4.605469 4.414062 -4.058594 4.414062 -3.203125 L 4.414062 0 L 5.644531 0 L 5.644531 -3.203125 C 5.644531 -4.046875 6.148438 -4.605469 6.925781 -4.605469 C 7.683594 -4.597656 8.15625 -4.023438 8.15625 -3.203125 L 8.15625 0 L 9.386719 0 L 9.386719 -3.453125 C 9.386719 -4.769531 8.566406 -5.652344 7.371094 -5.652344 C 6.453125 -5.652344 5.816406 -5.179688 5.558594 -4.421875 L 5.480469 -4.421875 C 5.242188 -5.167969 4.5625 -5.652344 3.710938 -5.652344 C 2.933594 -5.652344 2.320312 -5.234375 2.019531 -4.585938 L 1.929688 -4.585938 L 1.929688 -5.480469 L 0.710938 -5.480469 Z M 0.710938 0 "/></g></g></g><g fill="#00c2ff" fill-opacity="1"><g transform="translate(156.384557, 93.548041)"><g><path d="M 3.410156 0.171875 C 4.726562 0.171875 5.871094 -0.539062 6.171875 -1.597656 L 5.09375 -1.769531 C 4.867188 -1.15625 4.207031 -0.710938 3.464844 -0.710938 C 2.449219 -0.710938 1.726562 -1.390625 1.640625 -2.40625 L 6.34375 -2.40625 L 6.355469 -2.742188 C 6.355469 -4.476562 5.167969 -5.652344 3.421875 -5.652344 C 1.640625 -5.652344 0.386719 -4.488281 0.386719 -2.75 C 0.386719 -1.003906 1.628906 0.171875 3.410156 0.171875 Z M 1.628906 -3.117188 C 1.726562 -4.101562 2.417969 -4.78125 3.398438 -4.78125 C 4.347656 -4.78125 5.050781 -4.066406 5.113281 -3.117188 Z M 1.628906 -3.117188 "/></g></g></g><g fill="#00c2ff" fill-opacity="1"><g transform="translate(165.401483, 93.548041)"><g><path d="M 0.710938 0 L 1.929688 0 L 1.929688 -3.152344 C 1.929688 -4.003906 2.558594 -4.605469 3.355469 -4.605469 C 4.164062 -4.605469 4.660156 -3.980469 4.660156 -3.097656 L 4.660156 0 L 5.890625 0 L 5.890625 -3.3125 C 5.890625 -4.660156 5.058594 -5.652344 3.808594 -5.652344 C 3.019531 -5.652344 2.40625 -5.253906 2.019531 -4.542969 L 1.929688 -4.542969 L 1.929688 -5.480469 L 0.710938 -5.480469 Z M 0.710938 0 "/></g></g></g><g fill="#00c2ff" fill-opacity="1"><g transform="translate(174.20275, 93.548041)"><g><path d="M 2.675781 0.117188 C 2.988281 0.117188 3.398438 0.0664062 3.679688 -0.03125 L 3.679688 -0.929688 C 3.484375 -0.875 3.226562 -0.839844 3.03125 -0.839844 C 2.578125 -0.839844 2.289062 -1.175781 2.289062 -1.671875 L 2.277344 -4.574219 L 3.605469 -4.574219 L 3.605469 -5.480469 L 2.277344 -5.480469 L 2.289062 -7.164062 L 1.292969 -7.164062 L 1.101562 -5.480469 L 0.214844 -5.480469 L 0.214844 -4.574219 L 1.058594 -4.574219 L 1.058594 -1.628906 C 1.058594 -0.582031 1.695312 0.117188 2.675781 0.117188 Z M 2.675781 0.117188 "/></g></g></g></svg>